<?xml version="1.0" encoding="UTF-8" ?>
<!DOCTYPE svg PUBLIC "-//W3C//DTD SVG 1.1//EN" "http://www.w3.org/Graphics/SVG/1.1/DTD/svg11.dtd">
<svg width="384pt" height="384pt" viewBox="0 0 384 384" version="1.1" xmlns="http://www.w3.org/2000/svg">
<g id="#ffffffff">
<path fill="#ffffff" opacity="1.00" d=" M 0.00 0.00 L 384.00 0.00 L 384.00 384.00 L 0.00 384.00 L 0.00 0.00 M 73.75 131.84 C 66.17 135.01 59.07 139.39 52.95 144.90 C 51.26 146.35 49.63 147.92 47.68 149.03 C 43.85 149.44 40.05 148.27 36.22 148.48 C 29.33 148.77 22.27 151.46 17.72 156.79 C 15.73 159.06 14.89 162.03 14.01 164.85 C 19.26 163.71 24.54 162.01 29.97 162.98 C 30.26 164.61 30.67 166.24 30.69 167.90 C 30.22 170.63 28.76 173.05 27.74 175.59 C 23.37 185.48 22.41 196.62 23.88 207.25 C 25.83 219.38 31.93 230.74 40.64 239.37 C 48.23 246.86 57.99 251.91 68.25 254.61 C 70.95 255.32 73.74 255.65 76.53 255.49 C 80.48 256.21 84.52 256.21 88.47 255.48 C 93.86 255.84 99.09 254.09 104.02 252.07 C 109.20 249.89 114.42 247.43 118.54 243.50 C 125.67 236.75 130.24 226.99 129.68 217.07 C 129.55 214.09 128.59 210.75 125.90 209.10 C 123.67 207.97 121.13 207.74 118.73 207.20 L 119.29 206.62 C 119.73 202.49 116.27 198.06 111.96 198.14 C 108.08 197.79 104.11 200.43 103.22 204.25 C 102.78 208.16 103.84 212.05 103.74 215.97 C 103.72 225.86 96.65 235.25 87.13 237.97 C 82.14 239.64 76.79 238.72 71.86 237.32 C 65.95 232.72 62.89 225.26 62.31 217.94 C 61.86 212.69 63.45 207.60 64.40 202.50 C 59.75 208.60 59.09 216.66 59.81 224.05 C 60.59 232.15 65.15 239.52 71.18 244.83 C 75.46 248.63 81.03 250.34 86.10 252.79 C 78.07 252.34 69.81 250.51 63.14 245.81 C 57.28 241.58 52.56 235.64 50.16 228.79 C 44.96 214.67 49.49 197.68 61.05 188.05 C 63.73 185.94 66.92 183.27 70.59 184.14 C 72.39 185.31 72.25 187.79 71.67 189.59 C 70.51 192.39 68.51 194.72 66.84 197.21 C 74.70 198.37 81.75 193.16 86.22 187.20 C 89.59 182.94 89.56 177.28 90.12 172.15 C 96.41 169.09 103.21 167.36 109.95 165.62 C 106.66 164.34 103.54 162.64 100.81 160.40 C 107.73 162.86 116.20 164.33 122.44 159.42 C 125.60 157.45 127.04 152.62 124.27 149.73 C 121.43 146.98 117.10 147.42 113.48 146.76 C 112.75 143.39 112.23 139.80 110.13 136.94 C 107.06 132.61 101.96 130.25 96.92 129.06 C 89.15 127.41 81.02 128.90 73.75 131.84 M 186.47 128.58 C 177.72 129.99 169.15 133.52 162.39 139.34 C 157.86 143.20 154.53 148.62 153.71 154.57 C 153.12 158.81 155.12 163.01 157.93 166.07 C 162.33 170.63 168.89 172.37 175.06 172.52 C 184.08 172.70 192.82 168.91 199.52 162.99 C 198.62 160.98 197.71 158.97 196.80 156.96 C 192.88 160.10 189.19 163.87 184.28 165.43 C 180.38 166.64 176.12 167.01 172.13 166.03 C 168.40 165.23 165.98 161.00 167.07 157.37 C 168.44 151.98 173.26 148.40 178.01 146.06 C 184.52 142.76 191.96 142.35 199.13 142.44 C 197.09 137.87 194.94 133.21 191.55 129.47 C 190.37 127.82 188.16 128.50 186.47 128.58 M 296.38 129.18 C 292.52 130.40 290.43 134.93 291.27 138.75 C 292.23 142.81 296.60 145.67 300.72 144.70 C 306.16 143.91 309.05 136.62 305.84 132.23 C 303.85 129.21 299.75 127.99 296.38 129.18 M 217.41 137.46 C 215.51 139.89 213.83 142.55 211.46 144.55 C 209.12 145.53 206.49 145.23 204.01 145.45 C 204.02 146.84 204.02 148.24 204.03 149.64 C 206.43 149.73 208.83 149.82 211.23 149.92 C 211.38 154.24 211.16 158.58 211.48 162.89 C 211.56 167.12 215.66 170.55 219.77 170.46 C 227.13 171.63 234.61 171.10 242.03 171.05 C 242.02 169.68 242.02 168.31 242.03 166.94 C 236.97 166.76 231.91 166.78 226.86 167.16 L 226.09 166.90 L 225.81 166.14 C 226.11 160.76 226.12 155.36 226.07 149.96 C 231.28 149.37 236.53 149.75 241.76 149.70 C 241.76 148.24 241.76 146.77 241.77 145.31 C 236.57 145.33 231.37 145.32 226.18 145.14 C 226.06 142.52 225.94 139.89 225.80 137.27 C 223.00 137.36 220.20 137.41 217.41 137.46 M 263.56 146.71 C 263.45 146.06 263.22 144.74 263.10 144.08 L 263.16 142.96 C 258.45 142.75 253.74 142.72 249.03 142.89 C 248.95 152.27 248.96 161.64 249.03 171.02 C 253.76 171.17 258.50 171.13 263.21 170.61 L 264.00 170.70 C 263.60 163.77 263.69 156.83 263.82 149.90 C 267.05 148.85 270.42 148.39 273.81 148.61 C 274.44 149.93 275.07 151.25 275.70 152.58 C 279.90 152.68 284.09 152.72 288.29 152.63 C 287.74 150.38 287.59 147.84 285.98 146.04 C 283.51 143.25 279.57 142.36 275.98 142.43 C 271.49 142.52 267.48 144.77 263.56 146.71 M 314.89 142.88 C 314.71 152.26 314.71 161.65 314.89 171.03 C 319.68 171.16 324.47 171.16 329.26 171.02 C 329.28 168.75 329.37 166.49 329.15 164.23 C 337.39 167.79 347.24 168.30 355.51 164.58 C 359.28 162.77 363.35 159.57 363.14 154.94 C 363.26 150.13 359.07 146.69 354.97 145.06 C 348.65 142.65 341.50 142.22 334.99 144.16 C 333.17 144.58 331.35 145.31 329.46 145.12 C 329.34 144.59 329.12 143.53 329.01 143.00 C 324.31 142.70 319.60 142.69 314.89 142.88 M 292.75 149.84 C 292.48 156.90 292.49 163.98 292.75 171.05 C 297.50 171.20 302.25 171.18 307.00 171.03 L 306.93 169.99 C 307.04 163.54 306.86 157.08 307.21 150.63 C 302.54 149.08 297.57 149.63 292.75 149.84 M 152.29 184.68 C 157.84 185.27 163.43 185.01 169.00 185.03 C 228.33 185.03 287.67 185.03 347.00 185.03 C 352.86 185.00 358.75 185.32 364.59 184.60 C 363.38 183.34 361.80 182.49 360.02 182.61 C 296.02 182.64 232.01 182.62 168.00 182.62 C 163.43 182.71 158.82 182.20 154.29 182.91 C 153.79 183.35 152.79 184.24 152.29 184.68 M 326.93 198.99 C 326.44 198.55 325.95 198.11 325.47 197.68 C 320.35 196.65 315.11 196.80 309.92 197.02 C 309.74 204.43 309.74 211.84 309.93 219.25 C 327.30 219.51 344.68 219.51 362.05 219.25 C 362.26 214.40 362.64 209.46 361.37 204.71 C 360.93 200.74 357.04 198.48 353.55 197.53 C 344.74 195.08 335.70 197.71 326.93 198.99 M 172.29 197.34 C 169.05 201.82 165.93 206.50 164.46 211.90 C 161.39 212.11 158.32 212.26 155.25 212.38 C 155.24 213.52 155.24 214.65 155.23 215.79 C 158.47 215.96 161.72 216.06 164.96 216.15 C 165.04 221.05 165.04 225.96 164.83 230.86 C 161.79 231.82 158.74 232.80 155.70 233.78 C 155.50 235.10 155.30 236.43 155.10 237.76 C 158.41 236.93 161.70 236.04 164.99 235.11 C 165.10 240.37 165.17 245.66 164.35 250.87 C 161.49 250.74 158.62 250.65 155.76 250.59 C 155.76 251.48 155.76 253.27 155.77 254.16 C 163.62 253.89 171.64 255.21 179.37 253.31 L 180.45 253.37 C 181.16 245.58 180.61 237.76 180.96 229.97 C 183.88 229.06 186.82 228.18 189.77 227.36 C 189.83 225.97 189.89 224.59 189.94 223.21 C 186.93 224.10 183.92 225.01 180.92 225.93 C 180.85 222.65 180.84 219.38 180.86 216.10 C 183.92 216.06 186.97 216.01 190.02 215.96 C 190.00 214.72 189.98 213.47 189.97 212.23 C 186.95 212.19 183.94 212.15 180.92 212.09 C 180.83 207.14 180.80 202.19 180.77 197.25 C 177.94 197.29 175.12 197.32 172.29 197.34 M 198.60 197.38 L 199.47 197.49 C 197.88 199.58 196.17 201.60 194.85 203.88 C 193.36 206.30 193.57 209.25 193.49 211.98 C 193.58 218.72 193.48 225.46 193.73 232.20 C 203.15 232.53 212.58 232.28 222.00 232.35 C 230.28 232.25 238.56 232.64 246.83 232.08 C 246.80 230.85 246.78 229.62 246.75 228.40 C 243.09 228.47 239.42 228.43 235.75 228.28 C 235.80 226.61 235.85 224.95 235.90 223.29 C 239.56 223.29 243.21 223.23 246.87 223.13 C 246.86 222.30 246.84 220.64 246.84 219.81 C 243.13 219.72 239.38 219.87 235.72 219.18 C 235.43 217.38 235.41 215.55 235.33 213.74 C 239.15 214.07 242.99 214.16 246.83 214.07 C 246.81 213.32 246.79 211.81 246.77 211.05 L 246.86 210.38 C 243.17 210.35 239.48 210.30 235.79 210.20 C 235.79 208.49 235.79 206.78 235.79 205.07 C 239.49 205.04 243.19 205.00 246.89 204.91 C 246.86 203.67 246.83 202.43 246.81 201.19 C 243.24 201.11 239.67 201.02 236.10 200.93 C 235.91 199.65 235.73 198.36 235.55 197.08 C 230.51 196.84 225.46 196.85 220.43 197.06 C 220.25 198.39 220.08 199.72 219.90 201.06 C 216.57 201.20 213.13 201.32 210.02 199.91 C 210.37 198.91 210.72 197.91 211.08 196.92 C 206.91 196.72 202.74 196.90 198.60 197.38 M 265.86 204.02 C 265.94 205.31 266.03 206.59 266.12 207.88 C 270.10 207.21 274.09 206.57 278.09 206.05 C 277.97 209.61 277.92 213.17 277.87 216.74 C 273.92 216.72 269.97 216.74 266.02 216.78 C 265.96 217.63 265.84 219.33 265.78 220.18 C 268.55 220.45 271.31 220.67 274.09 220.90 C 271.73 232.10 268.36 243.05 266.07 254.27 C 267.99 254.18 269.92 254.09 271.85 254.00 C 274.25 246.36 276.05 238.55 277.76 230.73 C 277.86 231.26 278.07 232.30 278.18 232.83 C 277.88 239.92 277.88 247.01 278.03 254.11 C 283.34 254.32 288.67 254.30 293.98 254.07 L 293.90 252.99 C 294.00 245.58 293.68 238.16 294.15 230.76 C 296.40 238.64 298.28 246.63 300.49 254.52 C 302.57 254.57 304.64 254.64 306.72 254.72 C 304.07 243.22 300.14 232.03 297.91 220.43 C 300.62 220.33 303.33 220.22 306.04 220.10 C 305.96 218.85 305.89 217.61 305.82 216.38 C 301.87 216.47 297.92 216.45 293.97 216.31 C 293.83 211.89 293.85 207.47 294.09 203.06 C 298.05 202.35 302.00 201.62 305.95 200.90 C 305.95 199.59 305.95 198.28 305.96 196.98 C 292.55 199.07 279.17 201.38 265.86 204.02 M 309.88 223.93 C 309.89 224.78 309.90 226.46 309.90 227.31 C 315.87 227.49 321.84 227.48 327.82 227.31 C 327.88 230.51 327.91 233.72 327.94 236.94 C 321.91 236.97 315.88 236.97 309.85 236.96 C 309.88 238.44 309.92 239.93 309.96 241.41 L 310.39 240.64 C 316.23 241.27 322.11 240.80 327.96 241.08 C 327.90 244.24 328.05 247.39 328.46 250.52 C 322.41 250.57 316.28 250.04 310.31 251.37 L 309.53 251.11 C 309.64 251.83 309.85 253.27 309.96 253.99 C 327.26 254.12 344.56 254.21 361.86 253.95 C 362.08 253.27 362.53 251.92 362.75 251.24 C 356.61 249.40 350.15 250.68 343.86 250.17 C 343.84 247.12 343.84 244.08 343.86 241.03 C 349.77 241.03 355.69 241.16 361.60 240.64 L 362.01 241.42 C 362.05 239.93 362.09 238.45 362.13 236.97 C 356.08 236.94 350.03 236.94 343.99 236.93 C 343.56 233.72 343.59 230.44 344.13 227.25 C 350.11 227.56 356.10 227.51 362.08 227.29 C 362.08 226.45 362.10 224.78 362.11 223.94 C 344.70 223.83 327.29 223.85 309.88 223.93 M 193.18 236.11 C 193.28 237.47 193.37 238.84 193.47 240.21 C 193.69 239.94 194.13 239.38 194.35 239.10 C 195.34 239.47 197.31 240.20 198.30 240.56 C 196.70 245.02 195.05 249.47 193.63 253.99 C 198.73 254.41 203.85 254.38 208.95 254.06 C 210.89 249.47 212.63 244.79 214.18 240.06 C 218.74 239.96 223.30 239.94 227.86 240.00 C 227.33 242.04 226.79 244.09 226.26 246.14 C 228.84 246.74 231.81 247.03 233.52 249.34 C 233.65 250.93 233.77 252.51 233.89 254.11 C 238.33 254.29 242.79 254.27 247.23 254.12 C 247.16 251.36 247.04 248.61 246.80 245.86 C 244.59 243.26 243.80 239.96 244.40 236.61 L 245.28 236.52 C 241.21 235.89 237.10 235.81 233.00 235.90 C 219.73 236.09 206.45 235.70 193.18 236.11 Z" />
<path fill="#ffffff" opacity="1.00" d=" M 90.07 146.14 C 91.33 143.78 94.27 143.63 96.55 142.93 C 97.04 144.88 97.53 146.83 98.00 148.80 C 97.18 148.49 96.36 148.19 95.54 147.89 C 95.52 146.67 95.49 145.45 95.45 144.23 C 93.96 145.93 91.40 147.82 92.58 150.40 C 93.98 152.44 96.18 153.74 98.05 155.31 C 96.14 155.21 94.21 155.26 92.34 154.82 C 89.21 153.34 88.19 148.98 90.07 146.14 Z" />
<path fill="#ffffff" opacity="1.00" d=" M 335.37 148.28 C 339.45 147.08 344.05 147.29 347.87 149.23 C 350.24 150.49 352.50 152.95 351.95 155.84 C 351.56 158.49 348.93 159.97 346.61 160.71 C 342.37 161.94 337.68 162.03 333.50 160.50 C 331.14 159.69 329.13 157.55 329.20 154.94 C 328.78 151.36 332.45 149.22 335.37 148.28 Z" />
<path fill="#ffffff" opacity="1.00" d=" M 325.93 204.21 C 330.57 203.15 335.20 201.71 340.01 201.69 C 342.16 201.65 344.74 202.32 345.64 204.52 C 346.92 208.14 346.30 212.08 346.21 215.83 C 339.41 215.84 332.61 215.85 325.81 215.83 C 325.60 211.96 325.63 208.08 325.93 204.21 Z" />
<path fill="#ffffff" opacity="1.00" d=" M 209.22 205.08 C 212.97 205.03 216.72 204.92 220.47 204.69 C 220.35 206.54 220.23 208.40 220.10 210.25 C 216.26 210.35 212.42 210.40 208.57 210.39 C 208.79 208.62 209.00 206.85 209.22 205.08 Z" />
<path fill="#ffffff" opacity="1.00" d=" M 209.06 214.11 C 212.64 214.11 216.23 214.12 219.82 214.15 L 220.73 214.15 C 220.70 215.78 220.68 217.41 220.67 219.04 C 216.78 219.42 212.86 219.49 208.96 219.19 C 208.99 217.49 209.02 215.80 209.06 214.11 Z" />
<path fill="#ffffff" opacity="1.00" d=" M 209.07 223.28 C 212.64 223.24 216.22 223.23 219.80 223.22 L 220.73 223.21 C 220.69 225.21 220.64 227.20 220.52 229.20 L 219.68 229.13 C 216.15 228.83 212.61 228.67 209.06 228.64 C 209.06 226.85 209.06 225.06 209.07 223.28 Z" />
</g>
<g id="#2577e3ff">
<path fill="#2577e3" opacity="1.00" d=" M 73.75 131.84 C 81.02 128.90 89.15 127.41 96.92 129.06 C 101.96 130.25 107.06 132.61 110.13 136.94 C 112.23 139.80 112.75 143.39 113.48 146.76 C 117.10 147.42 121.43 146.98 124.27 149.73 C 127.04 152.62 125.60 157.45 122.44 159.42 C 116.20 164.33 107.73 162.86 100.81 160.40 C 103.54 162.64 106.66 164.34 109.95 165.62 C 103.21 167.36 96.41 169.09 90.12 172.15 C 89.56 177.28 89.59 182.94 86.22 187.20 C 81.75 193.16 74.70 198.37 66.84 197.21 C 68.51 194.72 70.51 192.39 71.67 189.59 C 72.25 187.79 72.39 185.31 70.59 184.14 C 66.92 183.27 63.73 185.94 61.05 188.05 C 49.49 197.68 44.96 214.67 50.16 228.79 C 52.56 235.64 57.28 241.58 63.14 245.81 C 69.81 250.51 78.07 252.34 86.10 252.79 C 81.03 250.34 75.46 248.63 71.18 244.83 C 65.15 239.52 60.59 232.15 59.81 224.05 C 59.09 216.66 59.75 208.60 64.40 202.50 C 63.45 207.60 61.86 212.69 62.31 217.94 C 62.89 225.26 65.95 232.72 71.86 237.32 C 75.36 239.66 79.15 241.63 83.19 242.85 C 87.36 244.26 91.80 243.88 96.08 243.31 C 95.58 242.98 94.59 242.31 94.09 241.98 C 103.15 239.56 110.43 232.00 112.66 222.92 C 113.48 220.00 113.49 216.95 113.55 213.94 C 113.81 210.87 116.86 209.28 118.73 207.20 C 121.13 207.74 123.67 207.97 125.90 209.10 C 128.59 210.75 129.55 214.09 129.68 217.07 C 130.24 226.99 125.67 236.75 118.54 243.50 C 114.42 247.43 109.20 249.89 104.02 252.07 C 99.09 254.09 93.86 255.84 88.47 255.48 C 84.49 255.20 80.50 255.21 76.53 255.49 C 73.74 255.65 70.95 255.32 68.25 254.61 C 57.99 251.91 48.23 246.86 40.64 239.37 C 31.93 230.74 25.83 219.38 23.88 207.25 C 22.41 196.62 23.37 185.48 27.74 175.59 C 28.76 173.05 30.22 170.63 30.69 167.90 C 30.67 166.24 30.26 164.61 29.97 162.98 C 24.54 162.01 19.26 163.71 14.01 164.85 C 14.89 162.03 15.73 159.06 17.72 156.79 C 22.27 151.46 29.33 148.77 36.22 148.48 C 40.05 148.27 43.85 149.44 47.68 149.03 C 49.63 147.92 51.26 146.35 52.95 144.90 C 59.07 139.39 66.17 135.01 73.75 131.84 M 90.07 146.14 C 88.19 148.98 89.21 153.34 92.34 154.82 C 94.21 155.26 96.14 155.21 98.05 155.31 C 96.18 153.74 93.98 152.44 92.58 150.40 C 91.40 147.82 93.96 145.93 95.45 144.23 C 95.49 145.45 95.52 146.67 95.54 147.89 C 96.36 148.19 97.18 148.49 98.00 148.80 C 97.53 146.83 97.04 144.88 96.55 142.93 C 94.27 143.63 91.33 143.78 90.07 146.14 Z" />
<path fill="#2577e3" opacity="1.00" d=" M 186.47 128.58 C 188.16 128.50 190.37 127.82 191.55 129.47 C 194.94 133.21 197.09 137.87 199.13 142.44 C 191.96 142.35 184.52 142.76 178.01 146.06 C 173.26 148.40 168.44 151.98 167.07 157.37 C 165.98 161.00 168.40 165.23 172.13 166.03 C 176.12 167.01 180.38 166.64 184.28 165.43 C 189.19 163.87 192.88 160.10 196.80 156.96 C 197.71 158.97 198.62 160.98 199.52 162.99 C 192.82 168.91 184.08 172.70 175.06 172.52 C 168.89 172.37 162.33 170.63 157.93 166.07 C 155.12 163.01 153.12 158.81 153.71 154.57 C 154.53 148.62 157.86 143.20 162.39 139.34 C 169.15 133.52 177.72 129.99 186.47 128.58 Z" />
<path fill="#2577e3" opacity="1.00" d=" M 217.41 137.46 C 220.20 137.41 223.00 137.36 225.80 137.27 C 225.94 139.89 226.06 142.52 226.18 145.14 C 231.37 145.32 236.57 145.33 241.77 145.31 C 241.76 146.77 241.76 148.24 241.76 149.70 C 236.53 149.75 231.28 149.37 226.07 149.96 L 225.11 150.11 C 224.56 155.45 224.52 160.91 225.81 166.14 L 226.09 166.90 L 226.86 167.16 C 231.46 168.20 236.20 168.14 240.89 168.16 C 240.88 168.61 240.87 169.51 240.87 169.96 C 233.83 169.82 226.79 170.01 219.77 170.46 C 215.66 170.55 211.56 167.12 211.48 162.89 C 211.16 158.58 211.38 154.24 211.23 149.92 C 208.83 149.82 206.43 149.73 204.03 149.64 C 204.02 148.24 204.02 146.84 204.01 145.45 C 206.49 145.23 209.12 145.53 211.46 144.55 C 213.83 142.55 215.51 139.89 217.41 137.46 Z" />
<path fill="#2577e3" opacity="1.00" d=" M 263.56 146.71 C 267.48 144.77 271.49 142.52 275.98 142.43 C 279.57 142.36 283.51 143.25 285.98 146.04 C 287.59 147.84 287.74 150.38 288.29 152.63 C 284.09 152.72 279.90 152.68 275.70 152.58 C 275.07 151.25 274.44 149.93 273.81 148.61 C 270.42 148.39 267.05 148.85 263.82 149.90 C 263.69 156.83 263.60 163.77 264.00 170.70 L 263.21 170.61 C 258.86 170.12 254.49 169.87 250.12 169.71 C 249.93 161.17 249.93 152.64 250.13 144.10 C 254.45 144.05 258.78 144.04 263.10 144.08 C 263.22 144.74 263.45 146.06 263.56 146.71 Z" />
<path fill="#2577e3" opacity="1.00" d=" M 334.99 144.16 C 341.50 142.22 348.65 142.65 354.97 145.06 C 359.07 146.69 363.26 150.13 363.14 154.94 C 363.35 159.57 359.28 162.77 355.51 164.58 C 347.24 168.30 337.39 167.79 329.15 164.23 L 328.44 163.86 C 328.16 165.88 327.88 167.89 327.61 169.91 C 323.78 169.95 319.95 169.96 316.12 169.94 C 315.93 161.26 315.93 152.57 316.12 143.88 C 320.59 143.91 325.03 144.48 329.46 145.12 C 331.35 145.31 333.17 144.58 334.99 144.16 M 335.37 148.28 C 332.45 149.22 328.78 151.36 329.20 154.94 C 329.13 157.55 331.14 159.69 333.50 160.50 C 337.68 162.03 342.37 161.94 346.61 160.71 C 348.93 159.97 351.56 158.49 351.95 155.84 C 352.50 152.95 350.24 150.49 347.87 149.23 C 344.05 147.29 339.45 147.08 335.37 148.28 Z" />
<path fill="#2577e3" opacity="1.00" d=" M 294.10 151.13 C 298.47 151.08 302.85 150.97 307.21 150.63 C 306.86 157.08 307.04 163.54 306.93 169.99 C 302.65 169.98 298.37 169.95 294.10 169.88 C 293.86 163.64 293.85 157.38 294.10 151.13 Z" />
<path fill="#2577e3" opacity="1.00" d=" M 326.93 198.99 C 335.70 197.71 344.74 195.08 353.55 197.53 C 357.04 198.48 360.93 200.74 361.37 204.71 C 361.24 209.11 360.94 213.50 360.80 217.91 C 344.25 218.10 327.69 218.11 311.14 217.91 C 310.91 211.30 310.92 204.70 311.13 198.09 C 315.91 198.23 320.71 198.28 325.47 197.68 C 325.95 198.11 326.44 198.55 326.93 198.99 M 325.93 204.21 C 325.63 208.08 325.60 211.96 325.81 215.83 C 332.61 215.85 339.41 215.84 346.21 215.83 C 346.30 212.08 346.92 208.14 345.64 204.52 C 344.74 202.32 342.16 201.65 340.01 201.69 C 335.20 201.71 330.57 203.15 325.93 204.21 Z" />
<path fill="#2577e3" opacity="1.00" d=" M 172.29 197.34 C 175.12 197.32 177.94 197.29 180.77 197.25 C 180.80 202.19 180.83 207.14 180.92 212.09 C 183.94 212.15 186.95 212.19 189.97 212.23 C 189.98 213.47 190.00 214.72 190.02 215.96 C 186.97 216.01 183.92 216.06 180.86 216.10 C 180.84 219.38 180.85 222.65 180.92 225.93 C 183.92 225.01 186.93 224.10 189.94 223.21 C 189.89 224.59 189.83 225.97 189.77 227.36 C 186.82 228.18 183.88 229.06 180.96 229.97 C 180.61 237.76 181.16 245.58 180.45 253.37 L 179.37 253.31 C 171.85 252.78 164.32 253.11 156.80 252.87 C 159.32 252.19 161.83 251.53 164.35 250.87 C 165.17 245.66 165.10 240.37 164.99 235.11 C 161.70 236.04 158.41 236.93 155.10 237.76 C 155.30 236.43 155.50 235.10 155.70 233.78 C 158.74 232.80 161.79 231.82 164.83 230.86 C 165.04 225.96 165.04 221.05 164.96 216.15 C 161.72 216.06 158.47 215.96 155.23 215.79 C 155.24 214.65 155.24 213.52 155.25 212.38 C 158.32 212.26 161.39 212.11 164.46 211.90 C 165.93 206.50 169.05 201.82 172.29 197.34 Z" />
<path fill="#2577e3" opacity="1.00" d=" M 220.43 197.06 C 225.46 196.85 230.51 196.84 235.55 197.08 C 235.73 198.36 235.91 199.65 236.10 200.93 C 239.67 201.02 243.24 201.11 246.81 201.19 C 246.83 202.43 246.86 203.67 246.89 204.91 C 243.19 205.00 239.49 205.04 235.79 205.07 C 235.79 206.78 235.79 208.49 235.79 210.20 C 239.48 210.30 243.17 210.35 246.86 210.38 L 246.77 211.05 C 243.05 211.12 239.34 211.21 235.62 211.35 C 239.18 211.78 242.73 212.17 246.30 212.50 C 242.63 212.84 238.97 213.23 235.33 213.74 C 235.41 215.55 235.43 217.38 235.72 219.18 C 239.38 219.87 243.13 219.72 246.84 219.81 C 246.84 220.64 246.86 222.30 246.87 223.13 C 243.21 223.23 239.56 223.29 235.90 223.29 C 235.85 224.95 235.80 226.61 235.75 228.28 C 239.42 228.43 243.09 228.47 246.75 228.40 C 246.78 229.62 246.80 230.85 246.83 232.08 C 238.56 232.64 230.28 232.25 222.00 232.35 C 212.58 232.28 203.15 232.53 193.73 232.20 C 193.48 225.46 193.58 218.72 193.49 211.98 C 193.57 209.25 193.36 206.30 194.85 203.88 C 196.17 201.60 197.88 199.58 199.47 197.49 C 203.07 197.87 206.65 198.56 210.02 199.91 C 213.13 201.32 216.57 201.20 219.90 201.06 C 220.08 199.72 220.25 198.39 220.43 197.06 M 207.87 204.14 C 208.09 206.22 208.32 208.31 208.57 210.39 C 212.42 210.40 216.26 210.35 220.10 210.25 C 220.23 208.40 220.35 206.54 220.47 204.69 C 216.34 203.70 212.07 203.74 207.87 204.14 M 208.65 211.43 C 212.52 212.22 216.51 212.32 220.38 211.42 C 216.48 210.97 212.54 210.99 208.65 211.43 M 208.05 213.08 C 208.06 215.67 208.07 218.26 208.08 220.86 C 212.17 221.16 216.30 221.16 220.37 220.49 C 216.57 220.15 212.76 220.05 208.95 220.14 L 208.96 219.19 C 212.86 219.49 216.78 219.42 220.67 219.04 C 220.68 217.41 220.70 215.78 220.73 214.15 L 219.82 214.15 L 219.96 213.05 C 215.99 212.94 212.01 212.93 208.05 213.08 M 208.05 222.08 C 208.05 224.69 208.05 227.30 208.05 229.91 C 212.13 230.12 216.30 230.33 220.27 229.17 L 219.68 229.13 L 220.52 229.20 C 220.64 227.20 220.69 225.21 220.73 223.21 L 219.80 223.22 L 219.97 222.11 C 216.00 221.97 212.02 221.95 208.05 222.08 Z" />
<path fill="#2577e3" opacity="1.00" d=" M 265.86 204.02 C 279.17 201.38 292.55 199.07 305.96 196.98 C 305.95 198.28 305.95 199.59 305.95 200.90 C 302.00 201.62 298.05 202.35 294.09 203.06 C 293.85 207.47 293.83 211.89 293.97 216.31 C 297.92 216.45 301.87 216.47 305.82 216.38 C 305.89 217.61 305.96 218.85 306.04 220.10 C 303.33 220.22 300.62 220.33 297.91 220.43 C 300.14 232.03 304.07 243.22 306.72 254.72 C 304.64 254.64 302.57 254.57 300.49 254.52 C 298.28 246.63 296.40 238.64 294.15 230.76 C 293.68 238.16 294.00 245.58 293.90 252.99 C 288.96 253.02 284.02 252.98 279.09 252.87 C 279.03 246.19 279.54 239.42 278.18 232.83 C 278.07 232.30 277.86 231.26 277.76 230.73 C 276.05 238.55 274.25 246.36 271.85 254.00 C 269.92 254.09 267.99 254.18 266.07 254.27 C 268.36 243.05 271.73 232.10 274.09 220.90 C 271.31 220.67 268.55 220.45 265.78 220.18 C 268.62 219.99 271.46 219.82 274.31 219.66 C 271.78 219.20 269.26 218.74 266.74 218.26 C 270.81 218.07 274.88 217.92 278.95 217.81 C 279.03 213.85 279.06 209.89 279.01 205.93 L 278.09 206.05 C 274.09 206.57 270.10 207.21 266.12 207.88 C 266.03 206.59 265.94 205.31 265.86 204.02 Z" />
<path fill="#2577e3" opacity="1.00" d=" M 310.64 225.51 C 319.07 224.60 327.54 225.14 336.00 225.05 C 344.45 225.13 352.94 224.61 361.37 225.51 C 355.70 226.25 349.99 226.08 344.30 226.35 L 344.13 227.25 C 343.59 230.44 343.56 233.72 343.99 236.93 L 344.14 237.86 C 349.53 238.14 354.93 238.04 360.32 238.23 C 360.64 238.83 361.28 240.04 361.60 240.64 C 355.69 241.16 349.77 241.03 343.86 241.03 C 343.84 244.08 343.84 247.12 343.86 250.17 C 350.15 250.68 356.61 249.40 362.75 251.24 C 358.99 252.56 355.03 253.26 351.04 253.11 C 341.02 252.89 330.99 252.87 320.96 253.11 C 317.33 253.26 313.71 252.63 310.31 251.37 C 316.28 250.04 322.41 250.57 328.46 250.52 C 328.81 247.42 329.07 244.30 328.99 241.17 L 327.96 241.08 C 322.11 240.80 316.23 241.27 310.39 240.64 C 310.71 240.04 311.37 238.85 311.70 238.25 C 317.46 238.05 323.22 237.94 328.99 237.89 C 329.01 233.99 328.98 230.08 328.90 226.18 C 322.81 226.28 316.69 226.31 310.64 225.51 Z" />
<path fill="#2577e3" opacity="1.00" d=" M 195.77 237.32 C 211.97 236.38 228.23 237.84 244.40 236.61 C 243.80 239.96 244.59 243.26 246.80 245.86 C 246.41 248.22 246.02 250.59 245.65 252.96 C 242.92 253.00 240.14 253.29 237.44 252.73 C 235.88 251.93 234.76 250.52 233.52 249.34 C 231.81 247.03 228.84 246.74 226.26 246.14 C 226.79 244.09 227.33 242.04 227.86 240.00 C 223.30 239.94 218.74 239.96 214.18 240.06 C 212.63 244.79 210.89 249.47 208.95 254.06 C 203.85 254.38 198.73 254.41 193.63 253.99 C 195.05 249.47 196.70 245.02 198.30 240.56 C 197.31 240.20 195.34 239.47 194.35 239.10 C 194.71 238.66 195.42 237.77 195.77 237.32 Z" />
</g>
<g id="#ff9913ff">
<path fill="#ff9913" opacity="1.00" d=" M 296.38 129.18 C 299.75 127.99 303.85 129.21 305.84 132.23 C 309.05 136.62 306.16 143.91 300.72 144.70 C 296.60 145.67 292.23 142.81 291.27 138.75 C 290.43 134.93 292.52 130.40 296.38 129.18 Z" />
<path fill="#ff9913" opacity="1.00" d=" M 103.22 204.25 C 104.11 200.43 108.08 197.79 111.96 198.14 C 116.27 198.06 119.73 202.49 119.29 206.62 L 118.73 207.20 C 116.86 209.28 113.81 210.87 113.55 213.94 C 113.09 216.92 112.95 219.93 112.66 222.92 C 110.43 232.00 103.15 239.56 94.09 241.98 C 90.50 242.64 86.84 242.88 83.19 242.85 C 79.15 241.63 75.36 239.66 71.86 237.32 C 76.79 238.72 82.14 239.64 87.13 237.97 C 96.65 235.25 103.72 225.86 103.74 215.97 C 103.84 212.05 102.78 208.16 103.22 204.25 Z" />
</g>
<g id="#016ce2ff">
<path fill="#016ce2" opacity="1.00" d=" M 249.03 142.89 C 253.74 142.72 258.45 142.75 263.16 142.96 L 263.10 144.08 C 258.78 144.04 254.45 144.05 250.13 144.10 C 249.93 152.64 249.93 161.17 250.12 169.71 C 254.49 169.87 258.86 170.12 263.21 170.61 C 258.50 171.13 253.76 171.17 249.03 171.02 C 248.96 161.64 248.95 152.27 249.03 142.89 Z" />
<path fill="#016ce2" opacity="1.00" d=" M 314.89 142.88 C 319.60 142.69 324.31 142.70 329.01 143.00 C 329.12 143.53 329.34 144.59 329.46 145.12 C 325.03 144.48 320.59 143.91 316.12 143.88 C 315.93 152.57 315.93 161.26 316.12 169.94 C 319.95 169.96 323.78 169.95 327.61 169.91 C 327.88 167.89 328.16 165.88 328.44 163.86 L 329.15 164.23 C 329.37 166.49 329.28 168.75 329.26 171.02 C 324.47 171.16 319.68 171.16 314.89 171.03 C 314.71 161.65 314.71 152.26 314.89 142.88 Z" />
<path fill="#016ce2" opacity="1.00" d=" M 225.11 150.11 L 226.07 149.96 C 226.12 155.36 226.11 160.76 225.81 166.14 C 224.52 160.91 224.56 155.45 225.11 150.11 Z" />
<path fill="#016ce2" opacity="1.00" d=" M 292.75 149.84 C 297.57 149.63 302.54 149.08 307.21 150.63 C 302.85 150.97 298.47 151.08 294.10 151.13 C 293.85 157.38 293.86 163.64 294.10 169.88 C 298.37 169.95 302.65 169.98 306.93 169.99 L 307.00 171.03 C 302.25 171.18 297.50 171.20 292.75 171.05 C 292.49 163.98 292.48 156.90 292.75 149.84 Z" />
<path fill="#016ce2" opacity="1.00" d=" M 226.86 167.16 C 231.91 166.78 236.97 166.76 242.03 166.94 C 242.02 168.31 242.02 169.68 242.03 171.05 C 234.61 171.10 227.13 171.63 219.77 170.46 C 226.79 170.01 233.83 169.82 240.87 169.96 C 240.87 169.51 240.88 168.61 240.89 168.16 C 236.20 168.14 231.46 168.20 226.86 167.16 Z" />
<path fill="#016ce2" opacity="1.00" d=" M 152.29 184.68 C 152.79 184.24 153.79 183.35 154.29 182.91 C 158.82 182.20 163.43 182.71 168.00 182.62 C 232.01 182.62 296.02 182.64 360.02 182.61 C 361.80 182.49 363.38 183.34 364.59 184.60 C 358.75 185.32 352.86 185.00 347.00 185.03 C 287.67 185.03 228.33 185.03 169.00 185.03 C 163.43 185.01 157.84 185.27 152.29 184.68 Z" />
<path fill="#016ce2" opacity="1.00" d=" M 198.60 197.38 C 202.74 196.90 206.91 196.72 211.08 196.92 C 210.72 197.91 210.37 198.91 210.02 199.91 C 206.65 198.56 203.07 197.87 199.47 197.49 L 198.60 197.38 Z" />
<path fill="#016ce2" opacity="1.00" d=" M 309.92 197.02 C 315.11 196.80 320.35 196.65 325.47 197.68 C 320.71 198.28 315.91 198.23 311.13 198.09 C 310.92 204.70 310.91 211.30 311.14 217.91 C 327.69 218.11 344.25 218.10 360.80 217.91 C 360.94 213.50 361.24 209.11 361.37 204.71 C 362.64 209.46 362.26 214.40 362.05 219.25 C 344.68 219.51 327.30 219.51 309.93 219.25 C 309.74 211.84 309.74 204.43 309.92 197.02 Z" />
<path fill="#016ce2" opacity="1.00" d=" M 207.87 204.14 C 212.07 203.74 216.34 203.70 220.47 204.69 C 216.72 204.92 212.97 205.03 209.22 205.08 C 209.00 206.85 208.79 208.62 208.57 210.39 C 208.32 208.31 208.09 206.22 207.87 204.14 Z" />
<path fill="#016ce2" opacity="1.00" d=" M 278.09 206.05 L 279.01 205.93 C 279.06 209.89 279.03 213.85 278.95 217.81 C 274.88 217.92 270.81 218.07 266.74 218.26 C 269.26 218.74 271.78 219.20 274.31 219.66 C 271.46 219.82 268.62 219.99 265.78 220.18 C 265.84 219.33 265.96 217.63 266.02 216.78 C 269.97 216.74 273.92 216.72 277.87 216.74 C 277.92 213.17 277.97 209.61 278.09 206.05 Z" />
<path fill="#016ce2" opacity="1.00" d=" M 208.65 211.43 C 212.54 210.99 216.48 210.97 220.38 211.42 C 216.51 212.32 212.52 212.22 208.65 211.43 Z" />
<path fill="#016ce2" opacity="1.00" d=" M 235.62 211.35 C 239.34 211.21 243.05 211.12 246.77 211.05 C 246.79 211.81 246.81 213.32 246.83 214.07 C 242.99 214.16 239.15 214.07 235.33 213.74 C 238.97 213.23 242.63 212.84 246.30 212.50 C 242.73 212.17 239.18 211.78 235.62 211.35 Z" />
<path fill="#016ce2" opacity="1.00" d=" M 208.05 213.08 C 212.01 212.93 215.99 212.94 219.96 213.05 L 219.82 214.15 C 216.23 214.12 212.64 214.11 209.06 214.11 C 209.02 215.80 208.99 217.49 208.96 219.19 L 208.95 220.14 C 212.76 220.05 216.57 220.15 220.37 220.49 C 216.30 221.16 212.17 221.16 208.08 220.86 C 208.07 218.26 208.06 215.67 208.05 213.08 Z" />
<path fill="#016ce2" opacity="1.00" d=" M 113.55 213.94 C 113.49 216.95 113.48 220.00 112.66 222.92 C 112.95 219.93 113.09 216.92 113.55 213.94 Z" />
<path fill="#016ce2" opacity="1.00" d=" M 208.05 222.08 C 212.02 221.95 216.00 221.97 219.97 222.11 L 219.80 223.22 C 216.22 223.23 212.64 223.24 209.07 223.28 C 209.06 225.06 209.06 226.85 209.06 228.64 C 212.61 228.67 216.15 228.83 219.68 229.13 L 220.27 229.17 C 216.30 230.33 212.13 230.12 208.05 229.91 C 208.05 227.30 208.05 224.69 208.05 222.08 Z" />
<path fill="#016ce2" opacity="1.00" d=" M 309.88 223.93 C 327.29 223.85 344.70 223.83 362.11 223.94 C 362.10 224.78 362.08 226.45 362.08 227.29 C 356.10 227.51 350.11 227.56 344.13 227.25 L 344.30 226.35 C 349.99 226.08 355.70 226.25 361.37 225.51 C 352.94 224.61 344.45 225.13 336.00 225.05 C 327.54 225.14 319.07 224.60 310.64 225.51 C 316.69 226.31 322.81 226.28 328.90 226.18 C 328.98 230.08 329.01 233.99 328.99 237.89 C 323.22 237.94 317.46 238.05 311.70 238.25 C 311.37 238.85 310.71 240.04 310.39 240.64 L 309.96 241.41 C 309.92 239.93 309.88 238.44 309.85 236.96 C 315.88 236.97 321.91 236.97 327.94 236.94 C 327.91 233.72 327.88 230.51 327.82 227.31 C 321.84 227.48 315.87 227.49 309.90 227.31 C 309.90 226.46 309.89 224.78 309.88 223.93 Z" />
<path fill="#016ce2" opacity="1.00" d=" M 278.18 232.83 C 279.54 239.42 279.03 246.19 279.09 252.87 C 284.02 252.98 288.96 253.02 293.90 252.99 L 293.98 254.07 C 288.67 254.30 283.34 254.32 278.03 254.11 C 277.88 247.01 277.88 239.92 278.18 232.83 Z" />
<path fill="#016ce2" opacity="1.00" d=" M 193.18 236.11 C 206.45 235.70 219.73 236.09 233.00 235.90 C 237.10 235.81 241.21 235.89 245.28 236.52 L 244.40 236.61 C 228.23 237.84 211.97 236.38 195.77 237.32 C 195.42 237.77 194.71 238.66 194.35 239.10 C 194.13 239.38 193.69 239.94 193.47 240.21 C 193.37 238.84 193.28 237.47 193.18 236.11 Z" />
<path fill="#016ce2" opacity="1.00" d=" M 343.99 236.93 C 350.03 236.94 356.08 236.94 362.13 236.97 C 362.09 238.45 362.05 239.93 362.01 241.42 L 361.60 240.64 C 361.28 240.04 360.64 238.83 360.32 238.23 C 354.93 238.04 349.53 238.14 344.14 237.86 L 343.99 236.93 Z" />
<path fill="#016ce2" opacity="1.00" d=" M 327.96 241.08 L 328.99 241.17 C 329.07 244.30 328.81 247.42 328.46 250.52 C 328.05 247.39 327.90 244.24 327.96 241.08 Z" />
<path fill="#016ce2" opacity="1.00" d=" M 83.19 242.85 C 86.84 242.88 90.50 242.64 94.09 241.98 C 94.59 242.31 95.58 242.98 96.08 243.31 C 91.80 243.88 87.36 244.26 83.19 242.85 Z" />
<path fill="#016ce2" opacity="1.00" d=" M 245.65 252.96 C 246.02 250.59 246.41 248.22 246.80 245.86 C 247.04 248.61 247.16 251.36 247.23 254.12 C 242.79 254.27 238.33 254.29 233.89 254.11 C 233.77 252.51 233.65 250.93 233.52 249.34 C 234.76 250.52 235.88 251.93 237.44 252.73 C 240.14 253.29 242.92 253.00 245.65 252.96 Z" />
<path fill="#016ce2" opacity="1.00" d=" M 155.76 250.59 C 158.62 250.65 161.49 250.74 164.35 250.87 C 161.83 251.53 159.32 252.19 156.80 252.87 C 164.32 253.11 171.85 252.78 179.37 253.31 C 171.64 255.21 163.62 253.89 155.77 254.16 C 155.76 253.27 155.76 251.48 155.76 250.59 Z" />
<path fill="#016ce2" opacity="1.00" d=" M 309.53 251.11 L 310.31 251.37 C 313.71 252.63 317.33 253.26 320.96 253.11 C 330.99 252.87 341.02 252.89 351.04 253.11 C 355.03 253.26 358.99 252.56 362.75 251.24 C 362.53 251.92 362.08 253.27 361.86 253.95 C 344.56 254.21 327.26 254.12 309.96 253.99 C 309.85 253.27 309.64 251.83 309.53 251.11 Z" />
<path fill="#016ce2" opacity="1.00" d=" M 76.53 255.49 C 80.50 255.21 84.49 255.20 88.47 255.48 C 84.52 256.21 80.48 256.21 76.53 255.49 Z" />
</g>
</svg>
