<?xml version="1.0" encoding="UTF-8" ?>
<!DOCTYPE svg PUBLIC "-//W3C//DTD SVG 1.1//EN" "http://www.w3.org/Graphics/SVG/1.1/DTD/svg11.dtd">
<svg width="628pt" height="628pt" viewBox="0 0 628 628" version="1.1" xmlns="http://www.w3.org/2000/svg">
<g id="#012e72ff">
<path fill="#012e72" opacity="1.00" d=" M 0.00 0.00 L 628.00 0.00 L 628.00 628.00 L 0.00 628.00 L 0.00 0.00 M 236.04 191.95 C 208.69 209.49 188.28 237.01 177.97 267.70 C 182.53 269.57 186.97 271.88 191.82 272.97 C 193.00 271.91 193.54 270.38 194.18 268.98 C 200.78 251.28 211.58 235.24 224.92 221.92 C 239.96 207.32 258.55 196.23 278.80 190.65 C 293.44 186.39 308.90 185.75 324.04 186.89 C 351.89 189.89 378.61 202.75 398.15 222.85 C 408.82 233.26 416.98 245.96 423.65 259.23 C 425.96 263.79 427.58 268.65 429.20 273.49 C 434.09 271.56 439.04 269.78 443.94 267.85 C 437.26 248.18 426.82 229.61 412.65 214.35 C 391.24 190.90 361.62 174.77 330.03 170.70 C 297.50 165.98 263.34 173.59 236.04 191.95 M 28.83 259.27 C 28.59 263.17 28.50 267.09 28.55 271.00 C 28.75 297.72 28.33 324.43 28.75 351.14 C 35.74 351.39 42.75 351.46 49.74 351.07 C 49.71 344.68 49.58 338.30 49.90 331.92 C 52.64 335.84 55.12 340.07 58.90 343.10 C 63.84 347.17 70.17 349.21 76.49 349.74 C 84.40 350.46 92.45 347.58 98.42 342.41 C 102.11 339.24 104.57 334.98 107.11 330.90 C 107.42 337.61 107.29 344.33 107.27 351.05 C 114.08 351.46 120.91 351.45 127.73 351.05 C 127.68 339.36 127.72 327.66 127.64 315.97 C 127.73 313.50 127.59 310.91 128.61 308.61 C 130.77 304.82 136.83 303.90 139.77 307.26 C 141.48 309.03 141.55 311.64 141.64 313.95 C 141.69 326.35 141.36 338.75 141.74 351.15 C 148.47 351.40 155.20 351.40 161.93 351.16 C 162.00 344.42 161.94 337.69 162.09 330.96 C 164.10 334.77 166.15 338.67 169.22 341.76 C 173.93 346.54 180.21 350.05 187.00 350.46 C 193.44 350.87 200.15 349.90 205.85 346.73 C 211.93 343.44 216.40 337.77 218.88 331.38 C 214.11 330.62 209.36 329.66 204.56 329.10 C 201.34 328.55 198.46 330.35 195.51 331.29 C 191.58 332.77 186.87 332.03 183.63 329.34 C 181.67 327.73 180.63 325.33 179.47 323.15 C 193.22 322.79 206.99 322.88 220.75 323.09 C 220.77 332.44 220.51 341.80 220.84 351.15 C 227.85 351.40 234.88 351.40 241.90 351.15 C 241.97 346.75 242.05 342.34 242.01 337.94 C 243.45 341.00 244.92 344.20 247.51 346.48 C 251.29 350.06 256.78 351.43 261.87 350.78 C 265.68 350.27 268.87 347.95 272.07 346.01 C 271.73 349.68 271.98 353.72 269.84 356.92 C 267.58 360.34 263.07 361.69 259.16 360.87 C 256.46 360.17 254.15 358.48 251.46 357.75 C 247.18 362.88 243.35 368.40 239.67 373.98 C 244.85 378.37 251.08 381.85 257.97 382.45 C 265.33 383.05 273.08 382.26 279.70 378.77 C 285.14 375.94 288.92 370.73 291.27 365.18 C 293.20 360.72 293.04 355.75 293.04 350.99 C 292.86 329.08 293.20 307.17 292.88 285.27 C 286.20 285.28 279.52 285.28 272.84 285.28 C 272.17 298.10 272.88 310.94 272.54 323.77 C 272.48 326.50 271.77 330.08 268.50 330.53 C 264.93 331.72 262.29 328.00 262.49 324.77 C 262.06 311.60 262.86 298.41 262.16 285.25 C 255.45 285.29 248.74 285.39 242.03 285.18 C 241.80 276.54 242.15 267.90 241.86 259.26 C 234.89 259.30 227.91 259.28 220.94 259.27 C 220.48 274.49 220.65 289.72 220.88 304.94 C 217.67 299.16 213.68 293.58 208.03 289.97 C 197.82 283.29 183.69 283.76 173.71 290.68 C 168.38 294.13 164.96 299.64 161.97 305.09 C 160.10 300.85 158.19 296.46 154.82 293.17 C 145.05 283.35 127.97 282.92 117.04 291.02 C 112.30 294.46 109.73 299.87 107.27 305.00 C 104.36 300.02 101.27 294.92 96.56 291.41 C 85.12 282.45 67.22 283.77 56.87 293.83 C 54.11 296.56 52.08 299.89 49.90 303.07 C 49.45 288.48 49.81 273.88 49.71 259.29 C 42.75 259.27 35.79 259.28 28.83 259.27 M 379.06 259.77 C 378.91 274.52 379.12 289.28 378.95 304.04 C 377.73 301.95 376.52 299.85 375.12 297.88 C 370.14 290.66 361.74 285.98 353.03 285.28 C 340.61 284.14 328.00 291.64 322.81 302.94 C 319.95 308.49 318.88 314.77 318.98 320.98 C 319.05 339.07 318.91 357.15 319.06 375.24 C 325.97 375.52 332.89 375.55 339.81 375.23 C 339.63 366.01 339.81 356.78 339.19 347.57 C 353.92 353.14 371.97 346.13 378.97 332.02 C 378.95 338.40 378.98 344.78 379.05 351.16 C 386.01 351.40 392.96 351.40 399.92 351.15 C 399.97 345.09 399.96 339.02 400.06 332.96 C 402.37 336.57 404.60 340.32 407.74 343.29 C 414.15 349.27 423.20 352.65 431.97 351.37 C 434.05 351.08 435.73 349.66 436.98 348.05 C 439.13 345.30 440.94 342.31 443.11 339.57 C 443.44 343.60 443.48 347.65 443.39 351.69 C 454.89 351.65 466.40 351.79 477.88 351.11 C 478.11 339.05 477.94 326.98 477.91 314.92 C 477.98 312.80 477.89 310.60 478.63 308.58 C 480.76 304.87 486.88 303.85 489.66 307.40 C 491.51 309.45 491.57 312.37 491.65 314.98 C 491.68 327.03 491.36 339.09 491.75 351.14 C 498.55 351.39 505.36 351.39 512.16 351.16 C 512.40 344.44 512.35 337.71 512.17 330.99 C 514.14 334.80 516.18 338.68 519.25 341.74 C 528.35 351.22 543.65 353.97 555.57 348.61 C 562.81 345.39 567.20 338.19 569.44 330.88 C 564.54 329.81 559.63 328.60 554.61 328.20 C 552.07 327.93 550.02 329.73 547.84 330.72 C 543.27 333.41 536.98 332.48 533.25 328.75 C 531.58 327.08 530.31 325.07 529.01 323.12 C 542.96 322.77 556.93 322.98 570.89 323.00 C 571.18 328.01 570.99 333.21 572.79 337.99 C 574.89 343.71 579.72 348.42 585.55 350.24 C 590.51 351.42 595.80 350.42 600.43 348.43 C 602.66 347.43 605.18 345.73 605.15 342.99 C 605.38 337.15 604.53 331.33 604.83 325.49 C 602.90 326.39 600.99 327.43 598.88 327.82 C 595.57 328.26 592.36 325.64 591.85 322.39 C 590.76 316.71 591.43 310.89 591.35 305.15 C 595.62 305.00 599.88 304.93 604.16 304.89 C 604.42 298.51 604.41 292.12 604.13 285.74 C 599.87 285.59 595.62 285.56 591.37 285.62 C 591.47 281.17 591.43 276.72 591.16 272.28 C 584.48 272.29 577.81 272.29 571.13 272.27 C 570.85 283.18 571.09 294.09 571.00 305.01 C 567.50 296.44 560.07 289.85 551.37 286.88 C 542.02 284.06 531.34 285.50 523.42 291.36 C 518.33 294.88 515.00 300.28 512.33 305.75 C 510.71 301.88 509.11 297.90 506.33 294.69 C 503.95 291.97 501.00 289.78 497.85 288.03 C 493.04 285.36 487.35 284.98 481.96 285.30 C 475.83 285.59 470.15 288.63 465.65 292.66 C 461.71 296.16 459.61 301.11 457.48 305.81 C 454.32 295.72 445.26 287.96 434.96 285.93 C 426.96 284.61 418.25 285.78 411.46 290.43 C 406.40 293.72 402.87 298.77 400.06 304.01 C 399.82 289.26 400.09 274.51 399.94 259.75 C 392.98 259.46 386.01 259.45 379.06 259.77 M 571.81 355.59 C 573.24 356.49 574.71 357.36 576.15 358.28 C 576.26 361.39 576.34 364.51 576.44 367.63 C 576.95 367.74 577.95 367.96 578.45 368.07 C 578.41 364.64 578.40 361.22 578.48 357.80 C 580.09 357.12 581.70 356.45 583.29 355.72 C 579.47 355.47 575.63 355.43 571.81 355.59 M 584.28 356.01 C 584.11 360.05 584.04 364.17 585.19 368.10 C 586.40 364.86 586.55 361.40 586.46 357.99 C 588.70 361.02 590.66 364.31 593.37 366.97 C 593.74 367.06 594.50 367.25 594.88 367.35 C 597.79 364.72 599.79 361.28 601.87 357.99 C 601.87 361.39 602.00 364.83 602.99 368.12 C 604.43 364.00 604.10 359.59 603.75 355.33 C 598.73 356.63 596.97 361.90 594.42 365.80 C 591.98 362.42 589.57 359.02 587.11 355.66 C 586.40 355.75 584.99 355.92 584.28 356.01 M 178.08 362.56 C 182.01 376.10 188.87 388.62 196.79 400.22 C 201.67 407.20 207.37 413.57 213.33 419.65 C 224.38 430.74 237.58 439.45 251.56 446.41 C 285.07 462.34 325.02 463.84 359.72 450.77 C 379.14 443.16 397.01 431.55 411.43 416.44 C 425.75 401.16 437.31 383.05 443.84 363.08 C 439.28 361.01 434.62 359.17 429.88 357.58 C 427.27 362.53 425.38 367.83 422.84 372.82 C 415.71 386.65 406.31 399.34 394.84 409.88 C 375.35 427.84 350.09 439.54 323.70 442.36 C 308.01 443.67 291.96 442.87 276.85 438.18 C 256.28 432.31 237.16 421.12 222.38 405.62 C 211.46 394.66 202.75 381.60 196.48 367.47 C 195.14 364.41 194.16 361.19 192.63 358.22 C 187.55 358.69 182.94 361.18 178.08 362.56 Z" />
<path fill="#012e72" opacity="1.00" d=" M 73.51 304.63 C 77.07 303.56 81.15 303.76 84.39 305.68 C 88.49 308.27 91.16 313.10 90.83 317.99 C 90.87 324.74 84.82 330.96 78.00 330.81 C 71.46 331.07 65.29 325.55 64.80 319.02 C 64.02 313.00 67.63 306.53 73.51 304.63 Z" />
<path fill="#012e72" opacity="1.00" d=" M 178.78 314.50 C 180.59 309.23 185.37 304.82 191.07 304.48 C 197.13 304.47 202.27 308.98 204.10 314.59 C 195.66 314.59 187.22 314.69 178.78 314.50 Z" />
<path fill="#012e72" opacity="1.00" d=" M 347.52 304.76 C 354.17 302.67 361.56 306.98 363.61 313.50 C 366.73 321.02 360.82 330.16 352.94 331.17 C 345.75 332.27 338.51 326.14 338.24 318.92 C 337.74 312.86 341.78 306.70 347.52 304.76 Z" />
<path fill="#012e72" opacity="1.00" d=" M 425.59 304.65 C 433.32 302.52 440.89 309.46 441.27 317.06 C 442.05 324.75 434.87 332.00 427.20 331.43 C 420.38 330.67 414.55 324.04 415.23 317.09 C 415.44 311.22 419.74 305.76 425.59 304.65 Z" />
<path fill="#012e72" opacity="1.00" d=" M 533.16 307.17 C 537.71 303.03 545.37 302.97 549.99 307.04 C 552.00 308.73 553.05 311.21 554.20 313.51 C 545.78 313.67 537.36 313.60 528.94 313.56 C 530.16 311.32 531.24 308.91 533.16 307.17 Z" />
</g>
<g id="#fefefdff">
<path fill="#fefefd" opacity="1.00" d=" M 236.04 191.95 C 263.34 173.59 297.50 165.98 330.03 170.70 C 361.62 174.77 391.24 190.90 412.65 214.35 C 426.82 229.61 437.26 248.18 443.94 267.85 C 439.04 269.78 434.09 271.56 429.20 273.49 C 427.58 268.65 425.96 263.79 423.65 259.23 C 416.98 245.96 408.82 233.26 398.15 222.85 C 378.61 202.75 351.89 189.89 324.04 186.89 C 308.90 185.75 293.44 186.39 278.80 190.65 C 258.55 196.23 239.96 207.32 224.92 221.92 C 211.58 235.24 200.78 251.28 194.18 268.98 C 193.54 270.38 193.00 271.91 191.82 272.97 C 186.97 271.88 182.53 269.57 177.97 267.70 C 188.28 237.01 208.69 209.49 236.04 191.95 Z" />
<path fill="#fefefd" opacity="1.00" d=" M 28.83 259.27 C 35.79 259.28 42.75 259.27 49.71 259.29 C 49.81 273.88 49.45 288.48 49.90 303.07 C 52.08 299.89 54.11 296.56 56.87 293.83 C 67.22 283.77 85.12 282.45 96.56 291.41 C 101.27 294.92 104.36 300.02 107.27 305.00 C 109.73 299.87 112.30 294.46 117.04 291.02 C 127.97 282.92 145.05 283.35 154.82 293.17 C 158.19 296.46 160.10 300.85 161.97 305.09 C 164.96 299.64 168.38 294.13 173.71 290.68 C 183.69 283.76 197.82 283.29 208.03 289.97 C 213.68 293.58 217.67 299.16 220.88 304.94 C 220.65 289.72 220.48 274.49 220.94 259.27 C 227.91 259.28 234.89 259.30 241.86 259.26 C 242.15 267.90 241.80 276.54 242.03 285.18 C 248.74 285.39 255.45 285.29 262.16 285.25 C 262.86 298.41 262.06 311.60 262.49 324.77 C 262.29 328.00 264.93 331.72 268.50 330.53 C 271.77 330.08 272.48 326.50 272.54 323.77 C 272.88 310.94 272.17 298.10 272.84 285.28 C 279.52 285.28 286.20 285.28 292.88 285.27 C 293.20 307.17 292.86 329.08 293.04 350.99 C 293.04 355.75 293.20 360.72 291.27 365.18 C 288.92 370.73 285.14 375.94 279.70 378.77 C 273.08 382.26 265.33 383.05 257.97 382.45 C 251.08 381.85 244.85 378.37 239.67 373.98 C 243.35 368.40 247.18 362.88 251.46 357.75 C 254.15 358.48 256.46 360.17 259.16 360.87 C 263.07 361.69 267.58 360.34 269.84 356.92 C 271.98 353.72 271.73 349.68 272.07 346.01 C 268.87 347.95 265.68 350.27 261.87 350.78 C 256.78 351.43 251.29 350.06 247.51 346.48 C 244.92 344.20 243.45 341.00 242.01 337.94 C 242.05 342.34 241.97 346.75 241.90 351.15 C 234.88 351.40 227.85 351.40 220.84 351.15 C 220.51 341.80 220.77 332.44 220.75 323.09 C 206.99 322.88 193.22 322.79 179.47 323.15 C 180.63 325.33 181.67 327.73 183.63 329.34 C 186.87 332.03 191.58 332.77 195.51 331.29 C 198.46 330.35 201.34 328.55 204.56 329.10 C 209.36 329.66 214.11 330.62 218.88 331.38 C 216.40 337.77 211.93 343.44 205.85 346.73 C 200.15 349.90 193.44 350.87 187.00 350.46 C 180.21 350.05 173.93 346.54 169.22 341.76 C 166.15 338.67 164.10 334.77 162.09 330.96 C 161.94 337.69 162.00 344.42 161.93 351.16 C 155.20 351.40 148.47 351.40 141.74 351.15 C 141.36 338.75 141.69 326.35 141.64 313.95 C 141.55 311.64 141.48 309.03 139.77 307.26 C 136.83 303.90 130.77 304.82 128.61 308.61 C 127.59 310.91 127.73 313.50 127.64 315.97 C 127.72 327.66 127.68 339.36 127.73 351.05 C 120.91 351.45 114.08 351.46 107.27 351.05 C 107.29 344.33 107.42 337.61 107.11 330.90 C 104.57 334.98 102.11 339.24 98.42 342.41 C 92.45 347.58 84.40 350.46 76.49 349.74 C 70.17 349.21 63.84 347.17 58.90 343.10 C 55.12 340.07 52.64 335.84 49.90 331.92 C 49.58 338.30 49.71 344.68 49.74 351.07 C 42.75 351.46 35.74 351.39 28.75 351.14 C 28.33 324.43 28.75 297.72 28.55 271.00 C 28.50 267.09 28.59 263.17 28.83 259.27 M 73.51 304.63 C 67.63 306.53 64.02 313.00 64.80 319.02 C 65.29 325.55 71.46 331.07 78.00 330.81 C 84.82 330.96 90.87 324.74 90.83 317.99 C 91.16 313.10 88.49 308.27 84.39 305.68 C 81.15 303.76 77.07 303.56 73.51 304.63 M 178.78 314.50 C 187.22 314.69 195.66 314.59 204.10 314.59 C 202.27 308.98 197.13 304.47 191.07 304.48 C 185.37 304.82 180.59 309.23 178.78 314.50 Z" />
<path fill="#fefefd" opacity="1.00" d=" M 379.06 259.77 C 386.01 259.45 392.98 259.46 399.94 259.75 C 400.09 274.51 399.82 289.26 400.06 304.01 C 402.87 298.77 406.40 293.72 411.46 290.43 C 418.25 285.78 426.96 284.61 434.96 285.93 C 445.26 287.96 454.32 295.72 457.48 305.81 C 459.61 301.11 461.71 296.16 465.65 292.66 C 470.15 288.63 475.83 285.59 481.96 285.30 C 487.35 284.98 493.04 285.36 497.85 288.03 C 501.00 289.78 503.95 291.97 506.33 294.69 C 509.11 297.90 510.71 301.88 512.33 305.75 C 515.00 300.28 518.33 294.88 523.42 291.36 C 531.34 285.50 542.02 284.06 551.37 286.88 C 560.07 289.85 567.50 296.44 571.00 305.01 C 571.09 294.09 570.85 283.18 571.13 272.27 C 577.81 272.29 584.48 272.29 591.16 272.28 C 591.43 276.72 591.47 281.17 591.37 285.62 C 595.62 285.56 599.87 285.59 604.13 285.74 C 604.41 292.12 604.42 298.51 604.16 304.89 C 599.88 304.93 595.62 305.00 591.35 305.15 C 591.43 310.89 590.76 316.71 591.85 322.39 C 592.36 325.64 595.57 328.26 598.88 327.82 C 600.99 327.43 602.90 326.39 604.83 325.49 C 604.53 331.33 605.38 337.15 605.15 342.99 C 605.18 345.73 602.66 347.43 600.43 348.43 C 595.80 350.42 590.51 351.42 585.55 350.24 C 579.72 348.42 574.89 343.71 572.79 337.99 C 570.99 333.21 571.18 328.01 570.89 323.00 C 556.93 322.98 542.96 322.77 529.01 323.12 C 530.31 325.07 531.58 327.08 533.25 328.75 C 536.98 332.48 543.27 333.41 547.84 330.72 C 550.02 329.73 552.07 327.93 554.61 328.20 C 559.63 328.60 564.54 329.81 569.44 330.88 C 567.20 338.19 562.81 345.39 555.57 348.61 C 543.65 353.97 528.35 351.22 519.25 341.74 C 516.18 338.68 514.14 334.80 512.17 330.99 C 512.35 337.71 512.40 344.44 512.16 351.16 C 505.36 351.39 498.55 351.39 491.75 351.14 C 491.36 339.09 491.68 327.03 491.65 314.98 C 491.57 312.37 491.51 309.45 489.66 307.40 C 486.88 303.85 480.76 304.87 478.63 308.58 C 477.89 310.60 477.98 312.80 477.91 314.92 C 477.94 326.98 478.11 339.05 477.88 351.11 C 466.40 351.79 454.89 351.65 443.39 351.69 C 443.48 347.65 443.44 343.60 443.11 339.57 C 440.94 342.31 439.13 345.30 436.98 348.05 C 435.73 349.66 434.05 351.08 431.97 351.37 C 423.20 352.65 414.15 349.27 407.74 343.29 C 404.60 340.32 402.37 336.57 400.06 332.96 C 399.96 339.02 399.97 345.09 399.92 351.15 C 392.96 351.40 386.01 351.40 379.05 351.16 C 378.98 344.78 378.95 338.40 378.97 332.02 C 371.97 346.13 353.92 353.14 339.19 347.57 C 339.81 356.78 339.63 366.01 339.81 375.23 C 332.89 375.55 325.97 375.52 319.06 375.24 C 318.91 357.15 319.05 339.07 318.98 320.98 C 318.88 314.77 319.95 308.49 322.81 302.94 C 328.00 291.64 340.61 284.14 353.03 285.28 C 361.74 285.98 370.14 290.66 375.12 297.88 C 376.52 299.85 377.73 301.95 378.95 304.04 C 379.12 289.28 378.91 274.52 379.06 259.77 M 347.52 304.76 C 341.78 306.70 337.74 312.86 338.24 318.92 C 338.51 326.14 345.75 332.27 352.94 331.17 C 360.82 330.16 366.73 321.02 363.61 313.50 C 361.56 306.98 354.17 302.67 347.52 304.76 M 425.59 304.65 C 419.74 305.76 415.44 311.22 415.23 317.09 C 414.55 324.04 420.38 330.67 427.20 331.43 C 434.87 332.00 442.05 324.75 441.27 317.06 C 440.89 309.46 433.32 302.52 425.59 304.65 M 533.16 307.17 C 531.24 308.91 530.16 311.32 528.94 313.56 C 537.36 313.60 545.78 313.67 554.20 313.51 C 553.05 311.21 552.00 308.73 549.99 307.04 C 545.37 302.97 537.71 303.03 533.16 307.17 Z" />
<path fill="#fefefd" opacity="1.00" d=" M 571.81 355.59 C 575.63 355.43 579.47 355.47 583.29 355.72 C 581.70 356.45 580.09 357.12 578.48 357.80 C 578.40 361.22 578.41 364.64 578.45 368.07 C 577.95 367.96 576.95 367.74 576.44 367.63 C 576.34 364.51 576.26 361.39 576.15 358.28 C 574.71 357.36 573.24 356.49 571.81 355.59 Z" />
<path fill="#fefefd" opacity="1.00" d=" M 584.28 356.01 C 584.99 355.92 586.40 355.75 587.11 355.66 C 589.57 359.02 591.98 362.42 594.42 365.80 C 596.97 361.90 598.73 356.63 603.75 355.33 C 604.10 359.59 604.43 364.00 602.99 368.12 C 602.00 364.83 601.87 361.39 601.87 357.99 C 599.79 361.28 597.79 364.72 594.88 367.35 C 594.50 367.25 593.74 367.06 593.37 366.97 C 590.66 364.31 588.70 361.02 586.46 357.99 C 586.55 361.40 586.40 364.86 585.19 368.10 C 584.04 364.17 584.11 360.05 584.28 356.01 Z" />
<path fill="#fefefd" opacity="1.00" d=" M 178.08 362.56 C 182.94 361.18 187.55 358.69 192.63 358.22 C 194.16 361.19 195.14 364.41 196.48 367.47 C 202.75 381.60 211.46 394.66 222.38 405.62 C 237.16 421.12 256.28 432.31 276.85 438.18 C 291.96 442.87 308.01 443.67 323.70 442.36 C 350.09 439.54 375.35 427.84 394.84 409.88 C 406.31 399.34 415.71 386.65 422.84 372.82 C 425.38 367.83 427.27 362.53 429.88 357.58 C 434.62 359.17 439.28 361.01 443.84 363.08 C 437.31 383.05 425.75 401.16 411.43 416.44 C 397.01 431.55 379.14 443.16 359.72 450.77 C 325.02 463.84 285.07 462.34 251.56 446.41 C 237.58 439.45 224.38 430.74 213.33 419.65 C 207.37 413.57 201.67 407.20 196.79 400.22 C 188.87 388.62 182.01 376.10 178.08 362.56 Z" />
</g>
</svg>
