<?xml version="1.0" encoding="UTF-8" ?>
<!DOCTYPE svg PUBLIC "-//W3C//DTD SVG 1.1//EN" "http://www.w3.org/Graphics/SVG/1.1/DTD/svg11.dtd">
<svg width="200pt" height="200pt" viewBox="0 0 200 200" version="1.1" xmlns="http://www.w3.org/2000/svg">
<g id="#fdfdfeff">
<path fill="#fdfdfe" opacity="1.00" d=" M 38.93 63.85 C 42.06 63.85 45.18 63.85 48.31 63.88 C 48.40 65.79 48.47 67.70 48.54 69.61 C 55.45 69.40 62.37 69.43 69.28 69.61 C 69.27 71.16 69.26 72.72 69.25 74.28 C 62.30 74.43 55.35 74.37 48.40 74.38 C 48.41 76.12 48.42 77.86 48.41 79.60 C 54.99 79.56 61.56 79.52 68.13 79.72 C 68.29 92.73 68.34 105.75 68.07 118.76 C 63.12 118.76 58.17 118.75 53.23 118.66 C 53.19 117.22 53.14 115.79 53.10 114.35 C 54.92 114.41 56.75 114.48 58.58 114.57 C 58.60 104.57 58.97 94.57 58.52 84.58 C 57.40 85.11 56.25 85.60 55.21 86.27 C 54.19 87.93 53.70 89.84 53.05 91.66 C 54.28 91.97 55.51 92.27 56.74 92.57 C 56.81 93.92 56.87 95.26 56.94 96.61 C 54.03 96.77 51.12 96.94 48.21 97.14 C 48.21 98.65 48.20 100.16 48.20 101.67 C 51.10 101.77 54.01 101.87 56.91 102.00 C 56.91 103.24 56.90 104.49 56.90 105.74 C 53.99 105.81 51.08 105.88 48.17 105.96 C 48.11 109.11 48.05 112.26 48.00 115.40 C 45.22 115.43 42.44 115.43 39.66 115.40 C 39.59 112.37 39.56 109.34 39.58 106.31 C 36.95 106.22 34.32 106.13 31.70 106.04 C 31.69 104.74 31.68 103.45 31.68 102.16 C 34.20 102.09 36.73 102.01 39.25 101.93 C 39.23 100.29 39.21 98.65 39.18 97.01 C 36.73 96.88 34.28 96.77 31.83 96.66 C 31.81 95.50 31.78 94.34 31.76 93.18 C 32.58 92.95 34.20 92.50 35.01 92.27 C 34.23 89.26 33.31 86.06 30.40 84.42 C 29.08 95.69 30.07 107.07 29.79 118.40 C 26.79 118.48 23.79 118.50 20.79 118.48 C 20.55 105.57 20.59 92.65 20.77 79.74 C 26.75 79.57 32.74 79.58 38.72 79.63 C 38.72 77.86 38.73 76.09 38.74 74.33 C 32.20 74.40 25.66 74.47 19.13 74.17 C 19.15 72.53 19.18 70.90 19.20 69.27 C 25.67 69.44 32.14 69.42 38.60 69.15 C 38.71 67.38 38.82 65.61 38.93 63.85 M 40.10 85.32 C 41.12 87.77 42.01 90.29 43.40 92.58 C 43.70 92.56 44.30 92.52 44.60 92.50 C 46.02 90.26 46.89 87.74 47.92 85.32 C 45.31 85.31 42.70 85.31 40.10 85.32 Z" />
<path fill="#fdfdfe" opacity="1.00" d=" M 153.81 63.80 C 156.60 63.82 159.39 63.83 162.18 63.84 C 162.31 65.19 162.43 66.55 162.56 67.90 C 169.44 68.30 176.33 68.23 183.22 68.18 C 183.39 72.02 183.48 75.88 183.59 79.73 C 181.36 79.73 179.14 79.75 176.91 79.80 C 177.86 81.14 178.82 82.48 179.78 83.81 C 176.43 83.59 173.01 83.85 169.73 83.03 C 166.16 81.23 163.71 77.90 160.97 75.09 C 165.44 74.94 170.06 75.16 174.02 77.50 C 173.91 76.09 173.82 74.67 173.73 73.26 C 163.27 73.12 152.80 73.11 142.33 73.30 C 142.34 74.78 142.35 76.25 142.35 77.73 C 147.14 75.02 152.68 74.85 158.04 75.18 C 154.77 77.93 151.72 81.15 147.77 82.92 C 144.54 83.80 141.13 83.30 137.84 83.22 C 138.81 81.90 139.80 80.59 140.80 79.29 C 138.39 79.35 135.98 79.38 133.57 79.39 C 133.35 75.64 133.29 71.88 133.27 68.13 C 140.00 68.30 146.74 68.35 153.46 67.93 C 153.57 66.55 153.69 65.18 153.81 63.80 Z" />
<path fill="#fdfdfe" opacity="1.00" d=" M 109.86 67.55 C 112.07 66.99 114.30 66.12 116.62 66.31 C 118.72 66.88 121.15 68.46 121.19 70.87 C 119.28 75.16 115.64 78.59 114.56 83.28 C 113.20 89.03 113.00 95.11 114.24 100.90 C 115.04 104.75 117.75 107.90 120.84 110.17 C 122.51 111.47 124.73 111.35 126.72 111.54 C 124.59 105.20 119.51 100.72 115.23 95.85 C 120.88 99.38 126.41 103.17 131.43 107.56 C 134.21 109.67 135.03 114.75 131.54 116.58 C 126.24 119.29 119.26 118.10 114.92 114.07 C 111.94 111.58 110.29 107.98 108.75 104.51 C 107.21 105.41 105.66 106.30 104.10 107.18 C 101.80 104.91 99.52 102.62 97.22 100.34 C 94.85 101.68 92.55 103.37 89.83 103.91 C 87.62 103.88 85.54 102.98 83.46 102.31 C 82.64 104.74 81.80 107.17 80.96 109.60 C 76.90 109.86 71.13 108.98 70.44 104.07 C 72.16 101.36 75.14 99.49 76.17 96.35 C 77.22 93.00 77.73 89.49 77.83 85.99 C 77.98 82.45 75.38 79.68 73.87 76.70 C 77.16 77.13 80.32 78.55 83.63 78.67 C 86.13 77.63 88.18 75.78 90.51 74.43 C 96.37 70.70 103.31 69.53 109.86 67.55 M 98.92 74.18 C 94.40 75.72 89.60 77.13 85.88 80.27 C 85.36 83.02 85.59 85.84 85.59 88.62 C 89.41 88.61 93.19 89.29 96.79 90.55 C 97.54 88.04 98.30 85.52 99.06 83.01 C 101.50 83.69 105.29 83.83 105.66 87.05 C 105.05 89.84 103.49 92.28 102.20 94.79 C 104.09 96.16 105.97 97.53 107.85 98.92 C 107.74 94.25 107.38 89.55 108.02 84.91 C 108.58 80.73 110.32 76.87 111.90 73.00 C 107.54 72.49 103.09 72.74 98.92 74.18 M 84.60 100.38 C 87.57 98.96 90.46 97.39 93.30 95.72 C 90.89 93.38 88.35 91.19 85.71 89.12 C 85.16 92.86 84.80 96.61 84.60 100.38 Z" />
<path fill="#fdfdfe" opacity="1.00" d=" M 146.92 85.38 C 150.47 85.15 152.69 81.71 156.05 80.95 C 158.64 80.58 161.27 80.71 163.88 80.72 C 162.88 82.19 161.89 83.67 160.90 85.14 C 167.81 85.35 174.73 85.25 181.64 85.26 C 181.52 96.41 181.49 107.56 181.65 118.72 C 166.39 118.69 151.13 118.69 135.87 118.75 C 135.51 107.70 135.65 96.64 135.80 85.59 C 139.50 85.49 143.22 85.66 146.92 85.38 M 145.07 89.93 C 145.10 93.32 145.15 96.70 145.24 100.08 C 147.45 97.40 149.31 94.38 151.98 92.12 C 154.33 91.11 157.02 91.42 159.52 91.15 C 159.47 92.19 159.41 93.23 159.36 94.28 C 163.57 94.34 167.78 94.33 171.98 94.25 C 172.00 92.78 172.02 91.30 172.04 89.83 C 163.05 89.73 154.06 89.73 145.07 89.93 M 151.80 101.00 C 149.61 101.46 147.37 101.38 145.15 101.46 C 145.12 105.68 145.11 109.91 145.09 114.13 C 154.08 114.31 163.06 114.33 172.05 114.17 C 172.20 109.03 172.12 103.88 171.64 98.76 C 169.32 103.21 167.18 107.75 165.06 112.30 C 159.07 112.51 153.08 112.57 147.11 112.06 C 148.18 110.74 149.28 109.43 150.39 108.15 C 150.36 106.58 150.33 105.01 150.31 103.45 C 152.40 103.47 154.49 103.50 156.58 103.52 C 157.17 104.94 157.77 106.37 158.37 107.80 C 160.28 104.24 162.21 100.70 163.99 97.08 C 162.09 97.15 160.17 97.11 158.29 97.45 C 155.92 98.23 154.12 100.13 151.80 101.00 Z" />
<path fill="#fdfdfe" opacity="1.00" d=" M 59.46 127.25 C 60.04 127.25 61.20 127.26 61.78 127.26 C 61.68 130.79 62.13 134.47 60.94 137.86 C 59.22 141.19 54.47 141.02 51.47 139.73 C 48.32 136.35 49.51 131.25 50.68 127.28 C 51.32 130.47 51.45 133.75 52.26 136.91 C 52.92 139.64 57.31 139.60 58.75 137.61 C 59.70 134.24 59.38 130.70 59.46 127.25 Z" />
<path fill="#fdfdfe" opacity="1.00" d=" M 62.53 127.68 C 66.80 127.35 71.09 127.30 75.36 127.56 C 73.70 128.27 72.01 128.93 70.32 129.59 C 70.15 133.62 69.94 137.66 69.27 141.64 C 67.38 137.91 67.61 133.68 67.56 129.63 C 65.87 129.00 64.19 128.36 62.53 127.68 Z" />
<path fill="#fdfdfe" opacity="1.00" d=" M 76.36 127.31 C 76.89 127.24 77.95 127.10 78.48 127.03 C 78.43 128.94 78.38 130.85 78.33 132.76 C 80.74 132.83 83.15 132.89 85.56 132.97 C 85.94 130.78 86.35 128.59 86.82 126.41 C 89.07 131.17 89.04 136.84 86.82 141.61 C 86.35 139.31 85.95 137.01 85.57 134.69 C 83.30 134.75 81.04 134.81 78.78 134.89 C 78.20 136.94 77.60 138.99 76.95 141.03 C 76.18 136.49 76.14 131.89 76.36 127.31 Z" />
<path fill="#fdfdfe" opacity="1.00" d=" M 94.21 127.20 C 97.65 127.45 101.33 126.94 104.55 128.42 C 105.24 129.70 105.69 131.08 106.19 132.44 C 104.97 133.35 103.76 134.27 102.54 135.18 C 103.73 137.13 104.87 139.11 105.97 141.12 C 103.00 138.71 99.98 136.31 96.59 134.51 C 96.52 136.53 96.48 138.55 96.46 140.57 C 95.91 140.63 94.81 140.75 94.27 140.82 C 94.13 136.28 94.13 131.74 94.21 127.20 M 96.64 129.00 C 96.61 130.46 96.59 131.92 96.57 133.39 C 98.76 133.30 100.95 133.21 103.14 133.10 C 103.11 131.81 103.08 130.53 103.04 129.26 C 100.91 129.17 98.78 129.08 96.64 129.00 Z" />
<path fill="#fdfdfe" opacity="1.00" d=" M 131.19 127.38 C 133.01 127.36 134.84 127.33 136.66 127.31 C 136.69 131.78 136.70 136.26 136.63 140.73 C 136.08 140.72 134.99 140.70 134.45 140.69 C 134.46 136.32 134.57 131.92 133.92 127.59 C 130.98 131.83 129.27 136.73 127.17 141.41 C 122.84 137.92 121.34 132.32 120.25 127.11 C 123.43 130.13 124.92 134.31 126.61 138.25 C 128.12 134.61 129.61 130.97 131.19 127.38 Z" />
<path fill="#fdfdfe" opacity="1.00" d=" M 139.28 127.34 C 142.78 127.37 146.29 127.37 149.79 127.34 C 149.80 127.75 149.81 128.58 149.82 128.99 C 146.97 129.11 144.12 129.22 141.27 129.36 C 141.27 130.40 141.27 131.43 141.27 132.47 C 144.38 132.80 147.48 133.24 150.51 134.05 C 147.45 134.49 144.38 134.81 141.32 135.14 C 141.31 136.27 141.30 137.40 141.29 138.53 C 144.37 138.78 147.44 139.08 150.49 139.55 C 146.80 140.43 142.99 140.52 139.21 140.30 C 139.26 135.98 139.28 131.66 139.28 127.34 Z" />
<path fill="#fdfdfe" opacity="1.00" d=" M 151.09 127.13 C 151.66 127.27 152.79 127.54 153.35 127.68 C 154.11 131.15 154.89 134.61 155.67 138.07 C 156.96 134.52 158.15 130.93 159.34 127.35 C 159.88 127.34 160.97 127.34 161.51 127.33 C 162.45 130.94 163.45 134.53 164.40 138.13 C 165.30 134.29 166.44 130.47 168.53 127.09 C 168.15 131.84 167.92 137.40 164.09 140.81 C 162.46 137.64 161.43 134.23 160.29 130.88 C 159.11 133.99 158.05 137.15 157.05 140.33 C 156.23 140.46 155.41 140.59 154.58 140.73 C 153.38 136.20 152.19 131.68 151.09 127.13 Z" />
<path fill="#fdfdfe" opacity="1.00" d=" M 172.51 127.50 C 175.23 127.05 177.98 127.67 180.68 128.06 C 180.68 128.74 180.70 130.08 180.70 130.75 C 178.22 130.04 175.73 129.29 173.14 129.10 C 173.11 129.72 173.04 130.95 173.01 131.56 C 175.60 132.87 178.58 133.40 180.97 135.12 C 182.10 136.95 180.39 138.99 179.98 140.81 C 177.33 140.63 174.61 140.78 172.05 139.97 C 171.06 138.86 170.30 137.58 169.49 136.34 C 171.91 137.33 174.24 138.66 176.85 139.10 C 178.10 138.70 179.14 137.68 178.93 136.27 C 176.20 134.64 173.12 133.77 170.16 132.67 C 170.79 130.92 170.67 128.50 172.51 127.50 Z" />
<path fill="#fdfdfe" opacity="1.00" d=" M 21.96 132.67 C 20.83 130.35 22.41 127.42 25.11 127.51 C 28.14 126.69 30.78 128.40 32.77 130.51 C 29.61 129.72 26.34 129.04 23.12 129.97 C 25.64 132.43 28.96 133.64 32.28 134.56 C 32.01 136.33 32.77 138.76 30.94 139.88 C 28.99 140.94 26.62 140.88 24.51 140.43 C 22.46 140.11 21.74 137.90 20.61 136.46 C 23.71 137.21 26.78 138.08 29.90 138.77 C 29.87 137.93 29.80 136.27 29.77 135.44 C 27.13 134.66 24.41 133.99 21.96 132.67 Z" />
<path fill="#fdfdfe" opacity="1.00" d=" M 36.57 128.38 C 39.26 127.09 42.69 127.02 45.28 128.59 C 48.02 130.87 48.43 135.36 46.49 138.27 C 44.52 140.61 41.01 140.91 38.21 140.20 C 33.12 139.00 32.21 130.97 36.57 128.38 M 37.04 129.05 C 36.75 131.43 36.08 133.88 36.60 136.28 C 37.61 139.59 42.42 139.66 44.50 137.42 C 46.05 135.09 45.99 131.24 43.23 129.82 C 41.23 129.20 39.11 129.23 37.04 129.05 Z" />
<path fill="#fdfdfe" opacity="1.00" d=" M 107.87 127.56 C 111.45 127.45 115.06 127.59 118.58 128.37 C 115.80 128.83 113.00 129.15 110.20 129.43 C 110.20 130.53 110.20 131.63 110.21 132.73 C 112.75 132.85 115.30 132.97 117.85 133.09 C 117.85 133.49 117.86 134.27 117.86 134.66 C 115.44 134.68 113.02 134.69 110.60 134.71 C 110.59 135.66 110.57 137.56 110.56 138.51 C 113.28 138.53 115.99 138.55 118.71 138.55 C 118.72 139.05 118.74 140.05 118.75 140.55 C 115.18 140.56 111.60 140.58 108.03 140.65 C 107.81 136.29 107.79 131.93 107.87 127.56 Z" />
</g>
<g id="#e7141aff">
<path fill="#e7141a" opacity="1.00" d=" M 32.73 5.95 C 41.27 3.53 50.23 4.14 59.00 4.10 C 87.00 4.11 115.00 4.11 143.00 4.10 C 150.35 4.14 157.77 3.72 165.05 4.99 C 173.95 6.44 182.52 10.65 188.34 17.66 C 195.57 25.58 198.95 36.19 200.00 46.70 L 200.00 155.36 C 198.99 164.54 196.49 174.12 190.04 181.04 C 183.98 187.41 176.11 192.07 167.62 194.34 C 158.94 196.64 149.88 195.93 141.00 195.96 C 111.67 195.95 82.33 195.94 53.00 195.97 C 45.44 195.92 37.69 196.51 30.33 194.38 C 22.02 191.88 14.39 186.81 9.31 179.71 C 3.60 171.73 0.66 162.00 0.00 152.27 L 0.00 37.24 C 0.28 38.61 0.60 39.96 0.93 41.32 C 1.77 35.63 2.63 29.71 5.83 24.78 C 11.64 15.02 22.01 8.92 32.73 5.95 M 38.93 63.85 C 38.82 65.61 38.71 67.38 38.60 69.15 C 32.14 69.42 25.67 69.44 19.20 69.27 C 19.18 70.90 19.15 72.53 19.13 74.17 C 25.66 74.47 32.20 74.40 38.74 74.33 C 38.73 76.09 38.72 77.86 38.72 79.63 C 32.74 79.58 26.75 79.57 20.77 79.74 C 20.59 92.65 20.55 105.57 20.79 118.48 C 23.79 118.50 26.79 118.48 29.79 118.40 C 30.07 107.07 29.08 95.69 30.40 84.42 C 33.31 86.06 34.23 89.26 35.01 92.27 C 34.20 92.50 32.58 92.95 31.76 93.18 C 31.78 94.34 31.81 95.50 31.83 96.66 C 34.28 96.77 36.73 96.88 39.18 97.01 C 39.21 98.65 39.23 100.29 39.25 101.93 C 36.73 102.01 34.20 102.09 31.68 102.16 C 31.68 103.45 31.69 104.74 31.70 106.04 C 34.32 106.13 36.95 106.22 39.58 106.31 C 39.56 109.34 39.59 112.37 39.66 115.40 C 42.44 115.43 45.22 115.43 48.00 115.40 C 48.05 112.26 48.11 109.11 48.17 105.96 C 51.08 105.88 53.99 105.81 56.90 105.74 C 56.90 104.49 56.91 103.24 56.91 102.00 C 54.01 101.87 51.10 101.77 48.20 101.67 C 48.20 100.16 48.21 98.65 48.21 97.14 C 51.12 96.94 54.03 96.77 56.94 96.61 C 56.87 95.26 56.81 93.92 56.74 92.57 C 55.51 92.27 54.28 91.97 53.05 91.66 C 53.70 89.84 54.19 87.93 55.21 86.27 C 56.25 85.60 57.40 85.11 58.52 84.58 C 58.97 94.57 58.60 104.57 58.58 114.57 C 56.75 114.48 54.92 114.41 53.10 114.35 C 53.14 115.79 53.19 117.22 53.23 118.66 C 58.17 118.75 63.12 118.76 68.07 118.76 C 68.34 105.75 68.29 92.73 68.13 79.72 C 61.56 79.52 54.99 79.56 48.41 79.60 C 48.42 77.86 48.41 76.12 48.40 74.38 C 55.35 74.37 62.30 74.43 69.25 74.28 C 69.26 72.72 69.27 71.16 69.28 69.61 C 62.37 69.43 55.45 69.40 48.54 69.61 C 48.47 67.70 48.40 65.79 48.31 63.88 C 45.18 63.85 42.06 63.85 38.93 63.85 M 153.81 63.80 C 153.69 65.18 153.57 66.55 153.46 67.93 C 146.74 68.35 140.00 68.30 133.27 68.13 C 133.29 71.88 133.35 75.64 133.57 79.39 C 135.98 79.38 138.39 79.35 140.80 79.29 C 139.80 80.59 138.81 81.90 137.84 83.22 C 141.13 83.30 144.54 83.80 147.77 82.92 C 151.72 81.15 154.77 77.93 158.04 75.18 C 152.68 74.85 147.14 75.02 142.35 77.73 C 142.35 76.25 142.34 74.78 142.33 73.30 C 152.80 73.11 163.27 73.12 173.73 73.26 C 173.82 74.67 173.91 76.09 174.02 77.50 C 170.06 75.16 165.44 74.94 160.97 75.09 C 163.71 77.90 166.16 81.23 169.73 83.03 C 173.01 83.85 176.43 83.59 179.78 83.81 C 178.82 82.48 177.86 81.14 176.91 79.80 C 179.14 79.75 181.36 79.73 183.59 79.73 C 183.48 75.88 183.39 72.02 183.22 68.18 C 176.33 68.23 169.44 68.30 162.56 67.90 C 162.43 66.55 162.31 65.19 162.18 63.84 C 159.39 63.83 156.60 63.82 153.81 63.80 M 109.86 67.55 C 103.31 69.53 96.37 70.70 90.51 74.43 C 88.18 75.78 86.13 77.63 83.63 78.67 C 80.32 78.55 77.16 77.13 73.87 76.70 C 75.38 79.68 77.98 82.45 77.83 85.99 C 77.73 89.49 77.22 93.00 76.17 96.35 C 75.14 99.49 72.16 101.36 70.44 104.07 C 71.13 108.98 76.90 109.86 80.96 109.60 C 81.80 107.17 82.64 104.74 83.46 102.31 C 85.54 102.98 87.62 103.88 89.83 103.91 C 92.55 103.37 94.85 101.68 97.22 100.34 C 99.52 102.62 101.80 104.91 104.10 107.18 C 105.66 106.30 107.21 105.41 108.75 104.51 C 110.29 107.98 111.94 111.58 114.92 114.07 C 119.26 118.10 126.24 119.29 131.54 116.58 C 135.03 114.75 134.21 109.67 131.43 107.56 C 126.41 103.17 120.88 99.38 115.23 95.85 C 119.51 100.72 124.59 105.20 126.72 111.54 C 124.73 111.35 122.51 111.47 120.84 110.17 C 117.75 107.90 115.04 104.75 114.24 100.90 C 113.00 95.11 113.20 89.03 114.56 83.28 C 115.64 78.59 119.28 75.16 121.19 70.87 C 121.15 68.46 118.72 66.88 116.62 66.31 C 114.30 66.12 112.07 66.99 109.86 67.55 M 146.92 85.38 C 143.22 85.66 139.50 85.49 135.80 85.59 C 135.65 96.64 135.51 107.70 135.87 118.75 C 151.13 118.69 166.39 118.69 181.65 118.72 C 181.49 107.56 181.52 96.41 181.64 85.26 C 174.73 85.25 167.81 85.35 160.90 85.14 C 161.89 83.67 162.88 82.19 163.88 80.72 C 161.27 80.71 158.64 80.58 156.05 80.95 C 152.69 81.71 150.47 85.15 146.92 85.38 M 59.46 127.25 C 59.38 130.70 59.70 134.24 58.75 137.61 C 57.31 139.60 52.92 139.64 52.26 136.91 C 51.45 133.75 51.32 130.47 50.68 127.28 C 49.51 131.25 48.32 136.35 51.47 139.73 C 54.47 141.02 59.22 141.19 60.94 137.86 C 62.13 134.47 61.68 130.79 61.78 127.26 C 61.20 127.26 60.04 127.25 59.46 127.25 M 62.53 127.68 C 64.19 128.36 65.87 129.00 67.56 129.63 C 67.61 133.68 67.38 137.91 69.27 141.64 C 69.94 137.66 70.15 133.62 70.32 129.59 C 72.01 128.93 73.70 128.27 75.36 127.56 C 71.09 127.30 66.80 127.35 62.53 127.68 M 76.36 127.31 C 76.14 131.89 76.18 136.49 76.95 141.03 C 77.60 138.99 78.20 136.94 78.78 134.89 C 81.04 134.81 83.30 134.75 85.57 134.69 C 85.95 137.01 86.35 139.31 86.82 141.61 C 89.04 136.84 89.07 131.17 86.82 126.41 C 86.35 128.59 85.94 130.78 85.56 132.97 C 83.15 132.89 80.74 132.83 78.33 132.76 C 78.38 130.85 78.43 128.94 78.48 127.03 C 77.95 127.10 76.89 127.24 76.36 127.31 M 94.21 127.20 C 94.13 131.74 94.13 136.28 94.27 140.82 C 94.81 140.75 95.91 140.63 96.46 140.57 C 96.48 138.55 96.52 136.53 96.59 134.51 C 99.98 136.31 103.00 138.71 105.97 141.12 C 104.87 139.11 103.73 137.13 102.54 135.18 C 103.76 134.27 104.97 133.35 106.19 132.44 C 105.69 131.08 105.24 129.70 104.55 128.42 C 101.33 126.94 97.65 127.45 94.21 127.20 M 131.19 127.38 C 129.61 130.97 128.12 134.61 126.61 138.25 C 124.92 134.31 123.43 130.13 120.25 127.11 C 121.34 132.32 122.84 137.92 127.17 141.41 C 129.27 136.73 130.98 131.83 133.92 127.59 C 134.57 131.92 134.46 136.32 134.45 140.69 C 134.99 140.70 136.08 140.72 136.63 140.73 C 136.70 136.26 136.69 131.78 136.66 127.31 C 134.84 127.33 133.01 127.36 131.19 127.38 M 139.28 127.34 C 139.28 131.66 139.26 135.98 139.21 140.30 C 142.99 140.52 146.80 140.43 150.49 139.55 C 147.44 139.08 144.37 138.78 141.29 138.53 C 141.30 137.40 141.31 136.27 141.32 135.14 C 144.38 134.81 147.45 134.49 150.51 134.05 C 147.48 133.24 144.38 132.80 141.27 132.47 C 141.27 131.43 141.27 130.40 141.27 129.36 C 144.12 129.22 146.97 129.11 149.82 128.99 C 149.81 128.58 149.80 127.75 149.79 127.34 C 146.29 127.37 142.78 127.37 139.28 127.34 M 151.09 127.13 C 152.19 131.68 153.38 136.20 154.58 140.73 C 155.41 140.59 156.23 140.46 157.05 140.33 C 158.05 137.15 159.11 133.99 160.29 130.88 C 161.43 134.23 162.46 137.64 164.09 140.81 C 167.92 137.40 168.15 131.84 168.53 127.09 C 166.44 130.47 165.30 134.29 164.40 138.13 C 163.45 134.53 162.45 130.94 161.51 127.33 C 160.97 127.34 159.88 127.34 159.34 127.35 C 158.15 130.93 156.96 134.52 155.67 138.07 C 154.89 134.61 154.11 131.15 153.35 127.68 C 152.79 127.54 151.66 127.27 151.09 127.13 M 172.51 127.50 C 170.67 128.50 170.79 130.92 170.16 132.67 C 173.12 133.77 176.20 134.64 178.93 136.27 C 179.14 137.68 178.10 138.70 176.85 139.10 C 174.24 138.66 171.91 137.33 169.49 136.34 C 170.30 137.58 171.06 138.86 172.05 139.97 C 174.61 140.78 177.33 140.63 179.98 140.81 C 180.39 138.99 182.10 136.95 180.97 135.12 C 178.58 133.40 175.60 132.87 173.01 131.56 C 173.04 130.95 173.11 129.72 173.14 129.10 C 175.73 129.29 178.22 130.04 180.70 130.75 C 180.70 130.08 180.68 128.74 180.68 128.06 C 177.98 127.67 175.23 127.05 172.51 127.50 M 21.96 132.67 C 24.41 133.99 27.13 134.66 29.77 135.44 C 29.80 136.27 29.87 137.93 29.90 138.77 C 26.78 138.08 23.71 137.21 20.61 136.46 C 21.74 137.90 22.46 140.11 24.51 140.43 C 26.62 140.88 28.99 140.94 30.94 139.88 C 32.77 138.76 32.01 136.33 32.28 134.56 C 28.96 133.64 25.64 132.43 23.12 129.97 C 26.34 129.04 29.61 129.72 32.77 130.51 C 30.78 128.40 28.14 126.69 25.11 127.51 C 22.41 127.42 20.83 130.35 21.96 132.67 M 36.57 128.38 C 32.21 130.97 33.12 139.00 38.21 140.20 C 41.01 140.91 44.52 140.61 46.49 138.27 C 48.43 135.36 48.02 130.87 45.28 128.59 C 42.69 127.02 39.26 127.09 36.57 128.38 M 107.87 127.56 C 107.79 131.93 107.81 136.29 108.03 140.65 C 111.60 140.58 115.18 140.56 118.75 140.55 C 118.74 140.05 118.72 139.05 118.71 138.55 C 115.99 138.55 113.28 138.53 110.56 138.51 C 110.57 137.56 110.59 135.66 110.60 134.71 C 113.02 134.69 115.44 134.68 117.86 134.66 C 117.86 134.27 117.85 133.49 117.85 133.09 C 115.30 132.97 112.75 132.85 110.21 132.73 C 110.20 131.63 110.20 130.53 110.20 129.43 C 113.00 129.15 115.80 128.83 118.58 128.37 C 115.06 127.59 111.45 127.45 107.87 127.56 Z" />
<path fill="#e7141a" opacity="1.00" d=" M 98.92 74.18 C 103.09 72.74 107.54 72.49 111.90 73.00 C 110.32 76.87 108.58 80.73 108.02 84.91 C 107.38 89.55 107.74 94.25 107.85 98.92 C 105.97 97.53 104.09 96.16 102.20 94.79 C 103.49 92.28 105.05 89.84 105.66 87.05 C 105.29 83.83 101.50 83.69 99.06 83.01 C 98.30 85.52 97.54 88.04 96.79 90.55 C 93.19 89.29 89.41 88.61 85.59 88.62 C 85.59 85.84 85.36 83.02 85.88 80.27 C 89.60 77.13 94.40 75.72 98.92 74.18 Z" />
<path fill="#e7141a" opacity="1.00" d=" M 40.10 85.32 C 42.70 85.31 45.31 85.31 47.92 85.32 C 46.89 87.74 46.02 90.26 44.60 92.50 C 44.30 92.52 43.70 92.56 43.40 92.58 C 42.01 90.29 41.12 87.77 40.10 85.32 Z" />
<path fill="#e7141a" opacity="1.00" d=" M 84.60 100.38 C 84.80 96.61 85.16 92.86 85.71 89.12 C 88.35 91.19 90.89 93.38 93.30 95.72 C 90.46 97.39 87.57 98.96 84.60 100.38 Z" />
<path fill="#e7141a" opacity="1.00" d=" M 145.07 89.93 C 154.06 89.73 163.05 89.73 172.04 89.83 C 172.02 91.30 172.00 92.78 171.98 94.25 C 167.78 94.33 163.57 94.34 159.36 94.28 C 159.41 93.23 159.47 92.19 159.52 91.15 C 157.02 91.42 154.33 91.11 151.98 92.12 C 149.31 94.38 147.45 97.40 145.24 100.08 C 145.15 96.70 145.10 93.32 145.07 89.93 Z" />
<path fill="#e7141a" opacity="1.00" d=" M 151.80 101.00 C 154.12 100.13 155.92 98.23 158.29 97.45 C 160.17 97.11 162.09 97.15 163.99 97.08 C 162.21 100.70 160.28 104.24 158.37 107.80 C 157.77 106.37 157.17 104.94 156.58 103.52 C 154.49 103.50 152.40 103.47 150.31 103.45 C 150.33 105.01 150.36 106.58 150.39 108.15 C 149.28 109.43 148.18 110.74 147.11 112.06 C 153.08 112.57 159.07 112.51 165.06 112.30 C 167.18 107.75 169.32 103.21 171.64 98.76 C 172.12 103.88 172.20 109.03 172.05 114.17 C 163.06 114.33 154.08 114.31 145.09 114.13 C 145.11 109.91 145.12 105.68 145.15 101.46 C 147.37 101.38 149.61 101.46 151.80 101.00 Z" />
<path fill="#e7141a" opacity="1.00" d=" M 37.04 129.05 C 39.11 129.23 41.23 129.20 43.23 129.82 C 45.99 131.24 46.05 135.09 44.50 137.42 C 42.42 139.66 37.61 139.59 36.60 136.28 C 36.08 133.88 36.75 131.43 37.04 129.05 Z" />
<path fill="#e7141a" opacity="1.00" d=" M 96.64 129.00 C 98.78 129.08 100.91 129.17 103.04 129.26 C 103.08 130.53 103.11 131.81 103.14 133.10 C 100.95 133.21 98.76 133.30 96.57 133.39 C 96.59 131.92 96.61 130.46 96.64 129.00 Z" />
</g>
</svg>
