<?xml version="1.0" encoding="UTF-8" ?>
<!DOCTYPE svg PUBLIC "-//W3C//DTD SVG 1.1//EN" "http://www.w3.org/Graphics/SVG/1.1/DTD/svg11.dtd">
<svg width="225pt" height="225pt" viewBox="0 0 225 225" version="1.1" xmlns="http://www.w3.org/2000/svg">
<g id="#ffffffff">
<path fill="#ffffff" opacity="1.00" d=" M 0.00 0.00 L 225.00 0.00 L 225.00 225.00 L 0.00 225.00 L 0.00 0.00 M 109.27 56.98 C 109.35 64.56 109.46 72.15 109.14 79.72 L 109.88 79.69 C 112.90 82.14 115.83 84.73 119.09 86.87 C 122.23 89.08 126.25 88.58 129.87 88.86 C 130.02 83.85 130.33 78.77 129.14 73.86 C 127.93 68.74 126.25 63.74 124.65 58.73 C 124.67 58.29 124.70 57.41 124.71 56.97 C 119.57 56.74 114.42 56.75 109.27 56.98 M 161.04 73.88 L 161.07 74.87 C 156.61 79.41 151.65 83.64 148.11 88.96 C 146.63 95.47 147.97 102.29 147.41 108.91 C 155.25 109.07 163.27 109.96 170.95 107.89 C 177.04 106.26 183.09 104.47 189.02 102.32 L 189.99 102.32 C 189.76 92.89 189.89 83.45 189.88 74.02 C 180.26 73.84 170.65 74.04 161.04 73.88 M 33.92 89.24 C 36.19 95.12 38.84 100.83 41.27 106.63 C 42.21 108.77 43.08 110.98 44.47 112.87 C 45.96 113.84 48.00 113.63 49.51 112.83 C 50.71 111.12 51.51 109.16 52.32 107.24 C 54.75 101.20 57.33 95.22 59.84 89.21 C 58.01 89.24 56.17 89.27 54.34 89.32 C 51.91 95.11 49.62 100.98 46.82 106.61 C 44.09 101.00 41.84 95.19 39.66 89.36 C 37.75 89.31 35.83 89.27 33.92 89.24 M 71.04 90.19 C 66.72 91.79 65.35 96.83 65.33 101.00 C 65.15 105.26 66.32 110.39 70.52 112.40 C 74.28 114.01 78.57 113.89 82.55 113.37 C 84.59 113.22 85.05 110.82 86.40 109.64 C 82.36 109.34 78.25 109.60 74.25 108.84 C 71.53 108.41 71.00 105.21 70.82 102.95 C 70.71 99.99 70.75 96.35 73.24 94.29 C 76.90 92.82 80.98 93.27 84.84 92.91 C 84.93 91.67 85.01 90.42 85.10 89.18 C 80.42 89.26 75.55 88.65 71.04 90.19 M 98.70 89.89 C 94.99 90.82 92.68 94.47 92.19 98.09 C 91.57 102.24 91.78 107.00 94.58 110.37 C 96.13 112.28 98.59 113.09 100.96 113.31 C 105.34 113.74 109.74 113.36 114.12 113.11 C 114.36 108.48 114.35 103.85 114.08 99.23 C 110.27 99.16 106.46 99.11 102.65 99.05 C 102.64 100.42 102.63 101.79 102.63 103.16 C 104.94 103.26 107.26 103.35 109.57 103.44 C 109.55 105.28 109.54 107.12 109.55 108.96 C 106.55 109.00 103.43 109.50 100.53 108.58 C 98.02 107.51 97.75 104.38 97.59 102.02 C 97.59 99.30 97.76 95.94 100.16 94.17 C 104.10 92.66 108.51 93.87 112.54 92.83 C 114.20 92.48 114.53 90.72 115.32 89.48 C 109.79 89.26 104.14 88.57 98.70 89.89 M 40.61 119.56 C 41.57 120.81 41.59 123.54 43.57 123.48 C 44.38 122.39 45.05 121.20 45.76 120.05 C 46.13 121.45 46.50 122.86 46.88 124.27 C 46.87 122.53 46.86 120.79 46.83 119.05 C 45.59 119.58 44.35 120.11 43.12 120.64 C 42.28 120.28 41.45 119.91 40.61 119.56 M 47.57 119.75 C 48.68 120.77 49.80 121.78 50.93 122.79 C 49.85 123.12 48.78 123.45 47.70 123.79 C 49.21 123.77 50.72 123.75 52.22 123.71 C 51.57 122.52 50.92 121.34 50.26 120.16 C 50.69 119.86 51.55 119.26 51.98 118.96 C 50.51 119.22 49.04 119.48 47.57 119.75 M 53.15 118.97 C 53.18 120.57 53.21 122.17 53.25 123.77 C 54.49 123.75 55.73 123.73 56.97 123.71 C 56.92 122.05 56.83 120.40 56.72 118.75 C 56.38 120.23 56.00 121.70 55.58 123.17 C 54.77 121.77 53.97 120.36 53.15 118.97 M 59.58 119.07 C 58.99 120.46 58.40 121.85 57.82 123.24 C 60.44 123.40 63.05 123.71 65.66 123.99 C 64.75 122.36 63.92 120.69 63.07 119.03 C 62.96 120.41 62.90 121.79 62.88 123.17 C 61.77 121.81 60.65 120.45 59.58 119.07 M 67.86 119.52 C 67.98 121.00 68.12 122.47 68.26 123.95 C 70.88 123.75 73.50 123.51 76.10 123.17 C 76.08 122.22 76.07 121.28 76.06 120.35 C 73.39 119.62 70.61 119.50 67.86 119.52 M 77.19 120.04 C 76.10 120.57 76.12 122.43 77.20 122.97 C 79.03 123.34 79.02 119.66 77.19 120.04 M 79.13 119.20 C 79.06 120.68 79.00 122.17 78.94 123.66 C 79.54 123.37 80.14 123.07 80.74 122.78 C 83.21 123.05 85.69 123.30 88.15 123.70 C 87.60 122.15 87.06 120.60 86.53 119.05 C 85.39 120.37 84.27 121.71 83.11 123.02 C 83.04 121.79 82.98 120.55 82.92 119.32 C 82.39 119.75 81.85 120.20 81.32 120.64 C 80.59 120.16 79.86 119.68 79.13 119.20 M 89.86 120.19 C 90.13 121.24 90.40 122.28 90.68 123.34 C 91.73 123.64 92.79 123.95 93.84 124.26 C 93.86 123.38 93.90 121.63 93.91 120.75 C 93.27 121.59 92.63 122.44 91.99 123.28 C 91.74 122.74 91.25 121.64 91.00 121.10 C 92.00 120.39 93.00 119.68 93.99 118.96 C 92.61 119.36 91.24 119.77 89.86 120.19 M 95.27 119.32 C 95.21 120.70 95.14 122.09 95.08 123.48 C 99.73 123.36 104.37 123.61 109.02 123.64 C 107.43 122.01 106.19 119.26 103.54 119.35 C 101.20 119.07 100.21 121.62 98.84 123.01 C 98.78 121.75 98.71 120.49 98.64 119.23 C 97.52 119.26 96.39 119.29 95.27 119.32 M 153.63 123.77 C 151.25 124.68 150.22 128.02 151.97 129.99 C 155.69 135.13 160.29 139.55 164.65 144.14 C 166.93 148.36 171.24 151.76 176.15 152.03 C 179.80 152.25 183.44 150.52 185.66 147.64 C 189.00 143.60 189.11 137.26 185.84 133.15 C 183.28 129.94 179.13 128.39 175.14 128.08 C 170.16 126.94 165.19 125.76 160.22 124.59 C 158.06 124.12 155.86 123.57 153.63 123.77 M 105.81 128.73 C 98.16 130.81 90.44 132.59 82.81 134.74 C 82.71 140.57 82.74 146.39 82.86 152.22 C 88.80 152.38 94.74 152.40 100.68 152.26 C 105.05 148.77 109.47 145.32 113.91 141.90 C 115.57 140.57 117.33 139.28 118.59 137.53 C 119.44 134.12 118.99 130.55 118.95 127.07 C 114.53 127.26 110.08 127.53 105.81 128.73 M 129.36 140.48 C 128.95 143.75 128.51 147.01 128.03 150.27 C 127.85 156.22 127.81 162.18 127.96 168.14 C 133.75 168.29 139.54 168.28 145.34 168.14 C 145.57 162.16 145.53 156.19 145.39 150.22 C 144.52 146.97 143.66 143.72 142.82 140.47 C 138.33 140.65 133.85 140.64 129.36 140.48 Z" />
<path fill="#ffffff" opacity="1.00" d=" M 68.35 122.68 C 69.47 121.75 70.59 120.83 71.76 119.96 C 71.82 120.64 71.95 121.99 72.01 122.67 C 71.10 122.67 69.27 122.68 68.35 122.68 Z" />
<path fill="#ffffff" opacity="1.00" d=" M 96.31 120.11 L 97.02 119.69 L 97.74 120.10 L 97.75 120.92 L 97.04 121.34 L 96.32 120.93 L 96.31 120.11 Z" />
<path fill="#ffffff" opacity="1.00" d=" M 102.25 120.33 C 103.74 120.25 103.74 122.73 102.25 122.67 C 100.76 122.74 100.77 120.28 102.25 120.33 Z" />
</g>
<g id="#d43532ff">
<path fill="#d43532" opacity="1.00" d=" M 109.27 56.98 C 114.42 56.75 119.57 56.74 124.71 56.97 C 124.70 57.41 124.67 58.29 124.65 58.73 C 124.41 65.52 124.23 72.31 124.16 79.10 C 119.40 79.28 114.64 79.45 109.88 79.69 L 109.14 79.72 C 109.46 72.15 109.35 64.56 109.27 56.98 Z" />
<path fill="#d43532" opacity="1.00" d=" M 161.04 73.88 C 170.65 74.04 180.26 73.84 189.88 74.02 C 189.89 83.45 189.76 92.89 189.99 102.32 L 189.02 102.32 C 179.76 102.35 170.51 102.55 161.27 102.06 C 161.31 93.00 161.49 83.93 161.07 74.87 L 161.04 73.88 Z" />
<path fill="#d43532" opacity="1.00" d=" M 175.14 128.08 C 179.13 128.39 183.28 129.94 185.84 133.15 C 189.11 137.26 189.00 143.60 185.66 147.64 C 183.44 150.52 179.80 152.25 176.15 152.03 C 171.24 151.76 166.93 148.36 164.65 144.14 C 164.84 140.83 164.98 137.36 166.49 134.34 C 168.37 131.17 171.90 129.54 175.14 128.08 Z" />
<path fill="#d43532" opacity="1.00" d=" M 82.81 134.74 C 88.58 134.64 94.35 134.69 100.12 134.81 C 100.27 140.63 100.46 146.45 100.68 152.26 C 94.74 152.40 88.80 152.38 82.86 152.22 C 82.74 146.39 82.71 140.57 82.81 134.74 Z" />
<path fill="#d43532" opacity="1.00" d=" M 128.03 150.27 C 133.82 150.34 139.60 150.33 145.39 150.22 C 145.53 156.19 145.57 162.16 145.34 168.14 C 139.54 168.28 133.75 168.29 127.96 168.14 C 127.81 162.18 127.85 156.22 128.03 150.27 Z" />
</g>
<g id="#8b2b2fff">
<path fill="#8b2b2f" opacity="1.00" d=" M 124.16 79.10 C 124.23 72.31 124.41 65.52 124.65 58.73 C 126.25 63.74 127.93 68.74 129.14 73.86 C 130.33 78.77 130.02 83.85 129.87 88.86 C 126.25 88.58 122.23 89.08 119.09 86.87 C 115.83 84.73 112.90 82.14 109.88 79.69 C 114.64 79.45 119.40 79.28 124.16 79.10 Z" />
<path fill="#8b2b2f" opacity="1.00" d=" M 148.11 88.96 C 151.65 83.64 156.61 79.41 161.07 74.87 C 161.49 83.93 161.31 93.00 161.27 102.06 C 170.51 102.55 179.76 102.35 189.02 102.32 C 183.09 104.47 177.04 106.26 170.95 107.89 C 163.27 109.96 155.25 109.07 147.41 108.91 C 147.97 102.29 146.63 95.47 148.11 88.96 Z" />
<path fill="#8b2b2f" opacity="1.00" d=" M 153.63 123.77 C 155.86 123.57 158.06 124.12 160.22 124.59 C 165.19 125.76 170.16 126.94 175.14 128.08 C 171.90 129.54 168.37 131.17 166.49 134.34 C 164.98 137.36 164.84 140.83 164.65 144.14 C 160.29 139.55 155.69 135.13 151.97 129.99 C 150.22 128.02 151.25 124.68 153.63 123.77 Z" />
<path fill="#8b2b2f" opacity="1.00" d=" M 105.81 128.73 C 110.08 127.53 114.53 127.26 118.95 127.07 C 118.99 130.55 119.44 134.12 118.59 137.53 C 117.33 139.28 115.57 140.57 113.91 141.90 C 109.47 145.32 105.05 148.77 100.68 152.26 C 100.46 146.45 100.27 140.63 100.12 134.81 C 94.35 134.69 88.58 134.64 82.81 134.74 C 90.44 132.59 98.16 130.81 105.81 128.73 Z" />
<path fill="#8b2b2f" opacity="1.00" d=" M 129.36 140.48 C 133.85 140.64 138.33 140.65 142.82 140.47 C 143.66 143.72 144.52 146.97 145.39 150.22 C 139.60 150.33 133.82 150.34 128.03 150.27 C 128.51 147.01 128.95 143.75 129.36 140.48 Z" />
</g>
<g id="#403c3dff">
<path fill="#403c3d" opacity="1.00" d=" M 33.92 89.24 C 35.83 89.27 37.75 89.31 39.66 89.36 C 41.84 95.19 44.09 101.00 46.82 106.61 C 49.62 100.98 51.91 95.11 54.34 89.32 C 56.17 89.27 58.01 89.24 59.84 89.21 C 57.33 95.22 54.75 101.20 52.32 107.24 C 51.51 109.16 50.71 111.12 49.51 112.83 C 48.00 113.63 45.96 113.84 44.47 112.87 C 43.08 110.98 42.21 108.77 41.27 106.63 C 38.84 100.83 36.19 95.12 33.92 89.24 Z" />
<path fill="#403c3d" opacity="1.00" d=" M 71.04 90.19 C 75.55 88.65 80.42 89.26 85.10 89.18 C 85.01 90.42 84.93 91.67 84.84 92.91 C 80.98 93.27 76.90 92.82 73.24 94.29 C 70.75 96.35 70.71 99.99 70.82 102.95 C 71.00 105.21 71.53 108.41 74.25 108.84 C 78.25 109.60 82.36 109.34 86.40 109.64 C 85.05 110.82 84.59 113.22 82.55 113.37 C 78.57 113.89 74.28 114.01 70.52 112.40 C 66.32 110.39 65.15 105.26 65.33 101.00 C 65.35 96.83 66.72 91.79 71.04 90.19 Z" />
<path fill="#403c3d" opacity="1.00" d=" M 98.70 89.89 C 104.14 88.57 109.79 89.26 115.32 89.48 C 114.53 90.72 114.20 92.48 112.54 92.83 C 108.51 93.87 104.10 92.66 100.16 94.17 C 97.76 95.94 97.59 99.30 97.59 102.02 C 97.75 104.38 98.02 107.51 100.53 108.58 C 103.43 109.50 106.55 109.00 109.55 108.96 C 109.54 107.12 109.55 105.28 109.57 103.44 C 107.26 103.35 104.94 103.26 102.63 103.16 C 102.63 101.79 102.64 100.42 102.65 99.05 C 106.46 99.11 110.27 99.16 114.08 99.23 C 114.35 103.85 114.36 108.48 114.12 113.11 C 109.74 113.36 105.34 113.74 100.96 113.31 C 98.59 113.09 96.13 112.28 94.58 110.37 C 91.78 107.00 91.57 102.24 92.19 98.09 C 92.68 94.47 94.99 90.82 98.70 89.89 Z" />
<path fill="#403c3d" opacity="1.00" d=" M 40.61 119.56 C 41.45 119.91 42.28 120.28 43.12 120.64 C 44.35 120.11 45.59 119.58 46.83 119.05 C 46.86 120.79 46.87 122.53 46.88 124.27 C 46.50 122.86 46.13 121.45 45.76 120.05 C 45.05 121.20 44.38 122.39 43.57 123.48 C 41.59 123.54 41.57 120.81 40.61 119.56 Z" />
<path fill="#403c3d" opacity="1.00" d=" M 47.57 119.75 C 49.04 119.48 50.51 119.22 51.98 118.96 C 51.55 119.26 50.69 119.86 50.26 120.16 C 50.92 121.34 51.57 122.52 52.22 123.71 C 50.72 123.75 49.21 123.77 47.70 123.79 C 48.78 123.45 49.85 123.12 50.93 122.79 C 49.80 121.78 48.68 120.77 47.57 119.75 Z" />
<path fill="#403c3d" opacity="1.00" d=" M 53.15 118.97 C 53.97 120.36 54.77 121.77 55.58 123.17 C 56.00 121.70 56.38 120.23 56.72 118.75 C 56.83 120.40 56.92 122.05 56.97 123.71 C 55.73 123.73 54.49 123.75 53.25 123.77 C 53.21 122.17 53.18 120.57 53.15 118.97 Z" />
<path fill="#403c3d" opacity="1.00" d=" M 59.58 119.07 C 60.65 120.45 61.77 121.81 62.88 123.17 C 62.90 121.79 62.96 120.41 63.07 119.03 C 63.92 120.69 64.75 122.36 65.66 123.99 C 63.05 123.71 60.44 123.40 57.82 123.24 C 58.40 121.85 58.99 120.46 59.58 119.07 Z" />
<path fill="#403c3d" opacity="1.00" d=" M 67.86 119.52 C 70.61 119.50 73.39 119.62 76.06 120.35 C 76.07 121.28 76.08 122.22 76.10 123.17 C 73.50 123.51 70.88 123.75 68.26 123.95 C 68.12 122.47 67.98 121.00 67.86 119.52 M 68.35 122.68 C 69.27 122.68 71.10 122.67 72.01 122.67 C 71.95 121.99 71.82 120.64 71.76 119.96 C 70.59 120.83 69.47 121.75 68.35 122.68 Z" />
<path fill="#403c3d" opacity="1.00" d=" M 77.19 120.04 C 79.02 119.66 79.03 123.34 77.20 122.97 C 76.12 122.43 76.10 120.57 77.19 120.04 Z" />
<path fill="#403c3d" opacity="1.00" d=" M 79.13 119.20 C 79.86 119.68 80.59 120.16 81.32 120.64 C 81.85 120.20 82.39 119.75 82.92 119.32 C 82.98 120.55 83.04 121.79 83.11 123.02 C 84.27 121.71 85.39 120.37 86.53 119.05 C 87.06 120.60 87.60 122.15 88.15 123.70 C 85.69 123.30 83.21 123.05 80.74 122.78 C 80.14 123.07 79.54 123.37 78.94 123.66 C 79.00 122.17 79.06 120.68 79.13 119.20 Z" />
<path fill="#403c3d" opacity="1.00" d=" M 89.86 120.19 C 91.24 119.77 92.61 119.36 93.99 118.96 C 93.00 119.68 92.00 120.39 91.00 121.10 C 91.25 121.64 91.74 122.74 91.99 123.28 C 92.63 122.44 93.27 121.59 93.91 120.75 C 93.90 121.63 93.86 123.38 93.84 124.26 C 92.79 123.95 91.73 123.64 90.68 123.34 C 90.40 122.28 90.13 121.24 89.86 120.19 Z" />
<path fill="#403c3d" opacity="1.00" d=" M 95.27 119.32 C 96.39 119.29 97.52 119.26 98.64 119.23 C 98.71 120.49 98.78 121.75 98.84 123.01 C 100.21 121.62 101.20 119.07 103.54 119.35 C 106.19 119.26 107.43 122.01 109.02 123.64 C 104.37 123.61 99.73 123.36 95.08 123.48 C 95.14 122.09 95.21 120.70 95.27 119.32 M 96.31 120.11 L 96.32 120.93 L 97.04 121.34 L 97.75 120.92 L 97.74 120.10 L 97.02 119.69 L 96.31 120.11 M 102.25 120.33 C 100.77 120.28 100.76 122.74 102.25 122.67 C 103.74 122.73 103.74 120.25 102.25 120.33 Z" />
</g>
</svg>
